#N canvas 812 734 1736 590 12;
#X floatatom 186 463 5 0 127 0 - - - 0;
#X msg 209 197 read ./resources/PRE1-voices.txt;
#X msg 498 230 read ./resources/PRE2-voices.txt;
#X msg 766 254 read ./resources/PRE3-voices.txt;
#X obj 185 507 spigot;
#X obj 224 488 tgl 15 0 empty empty empty 17 7 0 10 #fcfcfc #000000 #000000 0 1;
#X msg 1037 281 read ./resources/USER-voices.txt;
#X msg 1203 329 read ./resources/GM-voices.txt;
#N canvas 1082 923 401 351 hide-coll 1;
#X obj 114 21 inlet;
#X obj 4 19 inlet;
#X obj 90 84 cyclone/coll;
#C restore;
#X msg 17 184 240 67 0 107 0 0 14 47 0 67 247;
#X msg 56 239 240 67 0 107 0 0 15 47 0 66 247;
#X obj 17 206 list append;
#X obj 17 256 list;
#X obj 17 292 midiout 1;
#X obj 17 154 t b b;
#X obj 17 130 bng 15 250 50 0 empty empty empty 17 7 0 10 #fcfcfc #000000 #000000;
#X obj 19 67 t b f;
#X obj 216 44 print voicebnk;
#X connect 0 0 2 0;
#X connect 0 0 11 0;
#X connect 1 0 10 0;
#X connect 2 0 5 1;
#X connect 3 0 5 0;
#X connect 4 0 6 1;
#X connect 5 0 6 0;
#X connect 6 0 7 0;
#X connect 8 0 3 0;
#X connect 8 1 4 0;
#X connect 9 0 8 0;
#X connect 10 0 9 0;
#X connect 10 1 2 0;
#X restore 185 536 pd hide-coll;
#X obj 102 167 loadbang;
#X obj 189 173 t l b b b;
#X obj 475 200 t l b b;
#X obj 743 229 t l b b;
#X obj 112 532 outlet;
#X obj 1016 442 outlet;
#X msg 1099 401 5;
#X msg 1062 401 4;
#X msg 994 402 2;
#X msg 1027 401 3;
#X msg 960 403 1;
#X obj 102 191 t b b b;
#X obj 1014 256 t l b b;
#X msg 1015 236 1 24 33 37 39 40 57 63 74 77 84 100 103 113 119 127;
#X obj 614 14 inlet;
#X floatatom 614 38 5 0 0 0 - - - 0;
#X text 216 73 Must Toggle on to step through faves;
#N canvas 1569 677 935 685 instrumentsData 1;
#X obj 190 14 cyclone/coll pre2-fave;
#C restore;
#X obj 354 14 cyclone/coll pre3-fave;
#C restore;
#X msg 187 217 0 56 \, (smooth saw) \; 1 64 \, (Altair) \; 2 65 \, (Analog) \; 3 68 \, (sinepad) \; 4 70 \, (Voxpad) \; 5 73 \, (MovingPad) \; 6 75 \, (PWM Pad) \; 7 77 \, (ObSoft) \; 8 79 \, (Glasschoir) \; 9 81 \, (Stackchoir) \; 10 91 \, (AiryNYlon) \; 11 101 \, (Glacy) \;;
#X obj 18 14 cyclone/coll pre1-fave;
#C restore;
#X msg 352 218 0 55 \, (G-funk) \; 1 60 \, (PWM_Lead) \; 2 62 \, (Mini_Pulse) \; 3 63 \, (MICHINOKU) \; 4 71 \, (Gently) \; 5 72 \, (Warming) \; 6 81 \, (LazySweep) \; 7 103 \, (Siam) \; 8 104 \, (Glasschoir) \; 9 115 \, (Stackchoir) \; 10 119 \, (AiryNYlon) \; 11 7 \, (Glacy) \;;
#X obj 536 15 cyclone/coll User-fave;
#C restore;
#X msg 19 38 0 0 \, (PowerGrand) \; 1 14 \, (Sweetness) \; 2 33 \, (WurliAmped) \; 3 37 \, (HollowClav) \; 4 43 \, (Bell_Chiff) \; 5 52 \, (16+8+5) \; 6 83 \, (Strums) \; 7 86 \, (18_String) \; 8 90 \, (Velo_Jazz) \; 9 117 \, (Stand_Up) \; 10 118 \, (Fretless) \; 11 122 \, (Bs+Cym+Vb) \;;
#X msg 188 40 0 55 \, (AmpHarpMW) \; 1 60 \, (PWM_Lead) \; 2 62 \, (Mini_Pulse) \; 3 63 \, (Sync_Lead) \; 4 71 \, (Pure_Syn) \; 5 72 \, (MovingPad) \; 6 81 \, (StackChoir) \; 7 103 \, (MirrorRing) \; 8 104 \, (Poly) \; 9 115 \, (Bali) \; 10 119 \, (Djembe) \; 11 7 \, (Chamber) \;;
#X msg 353 42 0 55 \, (G-Funk) \; 1 64 \, (Sunbeams) \; 2 68 \, (Silverlake) \; 3 70 \, (Platinum) \; 4 73 \, (PW-Emmy) \; 5 75 \, (Zosma) \; 6 77 \, (Mira) \; 7 79 \, (Voxwaves) \; 8 81 \, (Stackchoir) \; 9 91 \, (AiryNYlon) \; 10 101 \, (TheSlayer) \; 11 7 \, (VintSwitch);
#X msg 536 42 1 24 \, (Big_Lead) \; 2 33 \, (BrokenStar) \; 3 37 \, (Supersnap) \; 4 39 \, (Foreplay) \; 5 40 \, (Brooklyn) \; 6 57 \, (Hip_acou) \; 7 63 \, (Fois_Gras) \; 8 74 \, (Early) \; 9 77 \, (Mayday) \; 10 84 \, (Fragile) \; 11 100 \, (Silver) \;;
#X msg 182 417 1 7 \, (Chamber_St) \; 2 13 \, (Background_St) \; 3 16 \, (Stringy) \; 4 56 \, (SmoothSaw) \; 5 60 \, (PWM_Lead) \; 6 62 \, (Mini_Pulse) \; 7 63 \, (Sync_Lead) \; 8 71 \, (Pure_Syn) \; 9 72 \, (Moving_pad) \; 10 81 \, (StackChoir) \; 11 86 \, (NeoCrystal) \; 12 88 \, (Fantasy) \; 13 \, 92 \, (Antares) \; 14 \, 103 \, (MirrorRing) \; 15 \, 104 \, (Poly) \; 16 \, 115 \, (Bali);
#X msg 358 416 0 47 \, (Singleline) \; 1 55 \, (G-Funk) \; 2 59 \, (Wide_Sweep) \; 3 60 \, (Sunbeams) \; 4 63 \, (Michinoku) \; 5 68 \, (Silverlake) \; 6 70 \, (Platinum) \; 7 73 \, (PW-EMMY) \; 8 75 \, (Zosma) \; 9 77 \, (Mira) \; 10 79 \, (VoxWaves) \; 11 81 \, (Doomed) \; 12 83 \, (Punchy) \; 13 \, 91 \, (Chaser_1) \; 14 \, 92 \, (Chaser_2) \; 15 \, 115 \, (Ping_Pong) \; 16 \, 115 \, (XXX);
#X msg 711 44 1 24 \, (Big_Lead) \; 2 33 \, (BrokenStar) \; 3 37 \, (Supersnap) \; 4 39 \, (Foreplay) \; 5 40 \, (Brooklyn) \; 6 57 \, (Hip_acou) \; 7 63 \, (Fois_Gras) \; 8 74 \, (Early) \; 9 77 \, (Mayday) \; 10 84 \, (Fragile) \; 11 100 \, (Silver) \;;
#X obj 711 17 cyclone/coll GM-fave;
#C restore;
#X msg 708 213 0 1 \, (Softstars) \; 1 24 \, (Big_Lead) \; 2 33 \, (BrokenStar) \; 3 37 \, (Supersnap) \; 4 39 \, (Foreplay) \; 5 40 \, (Brooklyn) \; 6 57 \, (Hip_acou) \; 7 63 \, (Fois_Gras) \; 8 74 \, (Early) \; 9 77 \, (Mayday) \; 10 84 \, (Charan_Lead) \; 11 100 \, (Brightness) \; 13 \, 103 \, (Sci-Fi) \; 14 \, 113 \, (Agogo) \; 15 \, 119 \, (BabeMagnet) \; 16 \, 127 \, (Strobe);
#X msg 19 222 0 0 \, (PowerGrand) \; 1 13 \, (Vintage74) \; 2 14 \, (Sweetness) \; 3 21 \, (Early_70s) \; 4 28 \, (GS_Tines) \; 5 31 \, (Ice_Piano) \; 6 33 \, (WurliAmped) \; 7 37 \, (HollowClav) \; 8 43 \, (Bell_Chiff) \; 9 83 \, (Strums) DIST \; 10 86 \, (Fretless) \; 11 90 \, (Velo_jazz) \; 12 117 \, (Stand_up) \; 13 118 \, (Fretless) \; 14 122 \, (Bs+Cym+Vb) \; 15 127 \, (Fat_Octave) \;;
#X msg 533 211 0 1 \, (Softstars) \; 1 24 \, +(Big_Lead)+ \; 2 33 \, (BrokenStar) \; 3 37 \, +(Supersnap)+ \; 4 39 \, (Foreplay) \; 5 40 \, (Brooklyn) \; 6 57 \, +(Hip_acou)+ \; 7 63 \, (Fois_Gras) \; 8 74 \, (Early) \; 9 77 \, (Mayday) \; 10 84 \, (Fragile) \; 11 100 \, (Silver) \; 13 \, 103 \, (Sine_Lead) \; 14 \, 113 \, (SlowSuckr) \; 15 \, 119 \, (BabeMagnet) \; 16 \, 127 \, (Strobe);
#X restore 922 59 pd instrumentsData;
#X obj 186 380 cyclone/listfunnel;
#X floatatom 185 430 5 0 0 0 - - - 0;
#X floatatom 227 430 5 0 0 0 - - - 0;
#X floatatom 147 143 5 0 0 0 - - - 0;
#X obj -5 133 thigner;
#X floatatom 87 299 5 0 0 0 - - - 0;
#X floatatom 86 350 5 0 0 0 - - - 0;
#X obj 58 403 thigner;
#X obj 109 116 bng 19 250 50 0 empty empty empty 0 -10 0 12 #fcfcfc #000000 #000000;
#X obj 132 116 bng 19 250 50 0 empty empty empty 0 -10 0 12 #fcfcfc #000000 #000000;
#X obj 146 43 inlet;
#X obj 218 222 print Pre1-voices;
#X obj 521 253 print Pre2-voices;
#X obj 789 275 print Pre3-voices;
#X obj 1059 304 print User-voices;
#X obj 1321 292 t l b b;
#X msg 1321 267 1 24 33 37 39 40 57 63 74 77 84 100 103 113 119 127;
#X obj 1368 353 print GM-voices;
#X msg 473 177 7 13 16 56 60 62 63 71 72 81 86 88 92 103 104 115;
#X msg 743 207 47 55 59 60 63 68 70 73 75 77 79 81 83 91 92;
#X msg 190 149 0 13 14 21 28 31 33 37 43 83 86 90 117 118 122;
#X obj 186 404 cyclone/coll fav_indices;
#C restore;
#X obj 87 273 % 16;
#X obj 86 325 + 0;
#X obj 730 76 bng 19 250 50 0 empty empty empty 0 -10 0 12 #fcfcfc #000000 #000000;
#X obj 773 78 bng 19 250 50 0 empty empty empty 0 -10 0 12 #fcfcfc #000000 #000000;
#X obj 809 76 bng 19 250 50 0 empty empty empty 0 -10 0 12 #fcfcfc #000000 #000000;
#X obj 839 79 bng 19 250 50 0 empty empty empty 0 -10 0 12 #fcfcfc #000000 #000000;
#X obj 882 82 bng 19 250 50 0 empty empty empty 0 -10 0 12 #fcfcfc #000000 #000000;
#X obj 776 51 sel 0 1 2 3 4;
#X obj 614 65 sel 0 1 2 3 4;
#X obj 1143 404 cnv 15 500 5 empty empty empty 20 12 0 14 #fc0400 #404040 0;
#X obj 741 18 cnv 15 500 5 empty empty empty 20 12 0 14 #fc0400 #404040 0;
#X text 785 26 SUPER CONFUSING;
#X text 1097 425 SUPER CONFUSING;
#X connect 0 0 4 0;
#X connect 0 0 13 0;
#X connect 1 0 8 1;
#X connect 1 0 19 0;
#X connect 2 0 8 1;
#X connect 2 0 17 0;
#X connect 3 0 8 1;
#X connect 3 0 18 0;
#X connect 4 0 8 0;
#X connect 5 0 4 1;
#X connect 6 0 8 1;
#X connect 6 0 16 0;
#X connect 7 0 8 1;
#X connect 7 0 15 0;
#X connect 9 0 20 0;
#X connect 10 1 1 0;
#X connect 10 2 38 0;
#X connect 11 0 27 0;
#X connect 11 1 2 0;
#X connect 11 2 39 0;
#X connect 12 0 27 0;
#X connect 12 1 3 0;
#X connect 12 2 40 0;
#X connect 15 0 14 0;
#X connect 16 0 14 0;
#X connect 17 0 14 0;
#X connect 18 0 14 0;
#X connect 19 0 14 0;
#X connect 20 0 5 0;
#X connect 20 1 1 0;
#X connect 20 2 47 0;
#X connect 21 0 27 0;
#X connect 21 1 6 0;
#X connect 21 2 41 0;
#X connect 22 0 21 0;
#X connect 23 0 24 0;
#X connect 24 0 56 0;
#X connect 24 0 57 0;
#X connect 27 0 48 0;
#X connect 28 0 0 0;
#X connect 30 0 49 0;
#X connect 31 0 30 0;
#X connect 32 0 50 0;
#X connect 33 0 48 0;
#X connect 34 0 0 0;
#X connect 35 0 31 0;
#X connect 36 0 31 1;
#X connect 37 0 30 0;
#X connect 42 0 27 0;
#X connect 42 1 7 0;
#X connect 42 2 44 0;
#X connect 43 0 42 0;
#X connect 45 0 11 0;
#X connect 46 0 12 0;
#X connect 47 0 10 0;
#X connect 47 0 27 0;
#X connect 48 0 28 0;
#X connect 48 1 29 0;
#X connect 49 0 32 0;
#X connect 50 0 33 0;
#X connect 56 0 51 0;
#X connect 56 1 52 0;
#X connect 56 2 53 0;
#X connect 56 3 54 0;
#X connect 56 4 55 0;
#X connect 57 0 47 0;
#X connect 57 1 45 0;
#X connect 57 2 46 0;
#X connect 57 3 22 0;
#X connect 57 4 43 0;
#X coords 0 -1 1 1 90 65 1 100 100;
