#N canvas 792 799 574 530 10;
#X msg 196 204 read ./resources/user-voice-descriptions.txt;
#X obj 37 514 cnv 15 120 60 empty voice-desc D10 20 12 0 18 #fc8000 #404040 0;
#X floatatom 61 207 5 0 0 0 - - - 0;
#X msg 126 394 \; voice-desc label \$1;
#X obj 37 454 cnv 15 120 60 empty voice-desc2 Hip_Aco 20 12 0 18 #fc8424 #404040 0;
#X msg 205 358 \; voice-desc2 label \$1;
#X obj 206 302 unpack s s s s s;
#X msg 253 393 \; voice-desc3 label \$1;
#X msg 343 356 \; voice-desc4 label \$1;
#X obj 158 454 cnv 15 120 60 empty voice-desc3 Ba 20 12 0 18 #fca060 #404040 0;
#X obj 278 454 cnv 15 120 60 empty voice-desc4 A.BASS 20 12 0 18 #fcb88c #404040 0;
#X msg 398 392 \; voice-desc5 label \$1;
#X obj 399 455 cnv 15 120 60 empty voice-desc5 SOFT 20 12 0 18 #fca860 #404040 0;
#X obj 61 169 inlet;
#X obj 119 108 loadbang;
#X msg 140 130 read ./resources/pre1-voice-descriptions.txt;
#X msg 158 152 read ./resources/pre2-voice-descriptions.txt;
#X msg 177 174 read ./resources/pre3-voice-descriptions.txt;
#X obj 138 17 inlet;
#X obj 140 78 select 1 2 3 4 5;
#X obj 61 228 + 1;
#X obj 60 276 cyclone/coll voice_bank_indices;
#C restore;
#X obj 14 96 cnv 15 100 60 empty empty ViewFavNo. 20 12 0 14 #fce0c4 #404040 0;
#X msg 218 235 read ./resources/gm-voice-descriptions.txt;
#X obj 270 88 bng 19 250 50 0 empty empty empty 0 -10 0 12 #fcfcfc #000000 #000000;
#X obj 313 90 bng 19 250 50 0 empty empty empty 0 -10 0 12 #fcfcfc #000000 #000000;
#X obj 349 88 bng 19 250 50 0 empty empty empty 0 -10 0 12 #fcfcfc #000000 #000000;
#X obj 379 91 bng 19 250 50 0 empty empty empty 0 -10 0 12 #fcfcfc #000000 #000000;
#X obj 422 94 bng 19 250 50 0 empty empty empty 0 -10 0 12 #fcfcfc #000000 #000000;
#X obj 322 60 sel 0 1 2 3 4;
#X obj 457 96 bng 19 250 50 0 empty empty empty 0 -10 0 12 #fcfcfc #000000 #000000;
#X floatatom 138 42 5 0 0 0 - - - 0;
#X connect 0 0 21 0;
#X connect 2 0 20 0;
#X connect 6 0 3 0;
#X connect 6 1 5 0;
#X connect 6 2 7 0;
#X connect 6 3 8 0;
#X connect 6 4 11 0;
#X connect 13 0 2 0;
#X connect 14 0 0 0;
#X connect 15 0 21 0;
#X connect 16 0 21 0;
#X connect 17 0 21 0;
#X connect 18 0 31 0;
#X connect 19 0 15 0;
#X connect 19 1 16 0;
#X connect 19 2 17 0;
#X connect 19 3 0 0;
#X connect 19 4 23 0;
#X connect 20 0 21 0;
#X connect 21 0 6 0;
#X connect 23 0 21 0;
#X connect 29 0 24 0;
#X connect 29 1 25 0;
#X connect 29 2 26 0;
#X connect 29 3 27 0;
#X connect 29 4 28 0;
#X connect 31 0 19 0;
#X connect 31 0 29 0;
