#N canvas 0 23 800 606 12;
#N canvas 861 466 480 355 README 0;
#X text 23 20 How Do I work?;
#X symbolatom 160 26 10 0 0 0 - - - 0;
#X text 24 66 Make sure you have correct MIDI in and Out;
#X text 19 123 need RECORD message to seq object;
#X text 21 175 need WRITE message to save as MIDI file;
#X text 19 148 need STOP message to halt all operations;
#X text 69 278 need START message to play;
#X text 71 260 need NOTEOUT objects receiving data to hear;
#X text 21 203 see polysynth2 for playback;
#X text 70 240 need correct Channel for sending out;
#X text 71 221 need READ to get a file you have recorded;
#X obj 339 11 loadbang;
#X obj 339 35 s b;
#X text 39 85 which means \, make sure you have the right channels set for MIDI controllers;
#X text 164 310 comment;
#N canvas 1006 1014 904 279 doc 0;
#X text 12 23 open bank-motif-voices~;
#X text 523 56 can't load in Song mode;
#X text 10 161 how to get different scales to load automatically;
#X text 4 185 have to set two unexposed toggles within penatonic-motif-scales;
#X text 398 153 load interesting Motif voices;
#X text 388 192 modify and save edits to bad ones;
#X text 166 98 enter digits (or use countbox abs) in bank-motif-voices above hide-coll;
#X text 634 182 modify and save edits to bad ones;
#X text 576 17 see instrumentsData pd box;
#X text 214 57 NB. Motif must be in Voice--User Drum mode;
#X text 432 75 (except when the whole patch starts up??);
#X text 192 22 open Motif descriptions for individual voice lists;
#X text 94 0 how to load specific patches (and save in the motif??);
#X text 115 237 PENTATONIC-MOTIF-SCALES contains a timing stepper;
#X text 474 236 SEND-MIDI-MESSAGES contains a "countertimer" for stepping favorites;
#X restore 164 332 pd doc;
#X connect 11 0 12 0;
#X restore 28 23 pd README;
#X obj 27 318 cnv 20 100 60 empty scale-name SLENDROB3 20 12 0 18 #fcc4c4 #404040 0;
#X obj 26 343 cnv 15 400 60 empty scale-desc "Gamelan_miring_from_Ngumpak\,_Bajanegara._1/1=266_Hz" 20 12 0 18 #fce0c4 #404040 0;
#X obj 26 404 cnv 15 50 60 empty scale-midi1 60 20 12 0 20 #dcdcfc #404040 0;
#X obj 77 404 cnv 15 140 60 empty scale-midi2 62.650101 20 12 0 20 #bcbcfc #404040 0;
#X obj 218 404 cnv 15 140 60 empty scale-midi3 64.651932 20 12 0 20 #dcdcfc #404040 0;
#X obj 359 404 cnv 15 130 60 empty scale-midi4 67.277946 20 12 0 20 #bcbcfc #404040 0;
#X obj 489 404 cnv 15 130 60 empty scale-midi5 69.293282 20 12 0 20 #dcdcfc #404040 0;
#X obj 26 468 cnv 15 50 60 empty scale-image1 1 20 12 0 20 #dcdcfc #404040 0;
#X obj 77 468 cnv 15 140 60 empty scale-image2 265.010010 20 12 0 20 #bcbcfc #404040 0;
#X obj 218 468 cnv 15 140 60 empty scale-image3 465.192993 20 12 0 20 #dcdcfc #404040 0;
#X obj 359 468 cnv 15 130 60 empty scale-image4 727.794983 20 12 0 20 #bcbcfc #404040 0;
#X obj 489 468 cnv 15 130 60 empty scale-image5 929.328003 20 12 0 20 #dcdcfc #404040 0;
#X obj 504 14 cnv 15 120 60 empty voice-desc B06 20 12 0 18 #fc8000 #404040 0;
#X obj 504 75 cnv 15 120 60 empty voice-desc2 Early_70's 20 12 0 18 #fc8424 #404040 0;
#X obj 504 136 cnv 15 120 60 empty voice-desc3 Kb 20 12 0 18 #fca060 #404040 0;
#X obj 504 196 cnv 15 120 60 empty voice-desc4 E.PIANO 20 12 0 18 #fcb88c #404040 0;
#X obj 504 255 cnv 15 120 60 empty voice-desc5 PIANO 20 12 0 18 #fca860 #404040 0;
#N canvas 394 165 553 349 use-midi-files 0;
#X obj 121 46 inlet;
#X obj 61 259 outlet;
#X obj 121 75 tgl 22 0 empty empty empty 17 7 0 10 #d0d0d0 #404040 #000000 0 1;
#X msg 154 137 stop;
#X obj 121 165 bng 17 250 50 0 empty empty empty 17 7 0 10 #dcdcdc #000000 #000000;
#X text 151 76 play/stop;
#X obj 231 254 cyclone/midiflush;
#X msg 231 202 bang;
#X text 274 196 flush hanging;
#X text 286 214 MIDI notes;
#X obj 121 106 select 1 0;
#X msg 257 110 read;
#X msg 30 200 delay 500;
#X obj 121 217 cyclone/seq;
#N canvas 708 222 280 376 recordMIDI 0;
#X obj 33 154 notein;
#X obj 33 204 cyclone/midiformat;
#X obj 33 178 pack;
#X obj 33 284 cyclone/seq;
#X msg 183 94 record;
#X msg 132 266 print;
#X msg 176 267 start;
#X obj 151 13 inlet;
#X msg 183 138 write;
#X msg 183 116 stop;
#X obj 33 327 outlet;
#X connect 0 0 2 0;
#X connect 0 1 2 1;
#X connect 1 0 3 0;
#X connect 2 0 1 0;
#X connect 3 0 10 0;
#X connect 4 0 3 0;
#X connect 5 0 3 0;
#X connect 6 0 3 0;
#X connect 8 0 3 0;
#X connect 9 0 3 0;
#X restore 367 236 pd recordMIDI;
#X text 289 146 READ in from./resources;
#X text 319 167 say \, big-midi.mid;
#X msg 257 62 read ./resources/big-multi.mid;
#X obj 231 285 outlet;
#X msg 256 87 read ./resources/four-voice-chords.mid;
#X obj 211 10 inlet;
#X obj 213 41 bng 15 250 50 0 empty empty empty 17 7 0 10 #fcfcfc #000000 #000000;
#X connect 0 0 2 0;
#X connect 2 0 10 0;
#X connect 3 0 13 0;
#X connect 4 0 13 0;
#X connect 4 0 1 0;
#X connect 6 0 18 0;
#X connect 7 0 6 0;
#X connect 10 0 4 0;
#X connect 10 1 3 0;
#X connect 10 1 7 0;
#X connect 11 0 13 0;
#X connect 12 0 13 0;
#X connect 13 0 6 0;
#X connect 13 1 4 0;
#X connect 14 0 6 0;
#X connect 17 0 13 0;
#X connect 19 0 13 0;
#X connect 20 0 21 0;
#X connect 21 0 11 0;
#X restore 29 106 pd use-midi-files;
#N canvas 15 692 778 704 send-midi-messages 1;
#X obj 76 38 inlet;
#X obj 145 230 pentatonic-motif-scales;
#X obj 132 568 bank-motif-voices;
#X floatatom 145 258 5 0 0 0 - - - 0;
#X obj 168 318 t b;
#X obj 130 657 motif-descriptions;
#X floatatom 130 635 5 0 0 0 - - - 0;
#N canvas 2225 544 318 363 countertiming 1;
#X obj 133 162 counter;
#X obj 101 138 t b b;
#X floatatom 133 188 5 0 0 0 - - - 0;
#X obj 104 28 inlet;
#X obj 135 270 outlet;
#X obj 46 62 inlet;
#X obj 135 229 mod 119;
#X obj 102 95 metro 10000;
#X obj 225 101 outlet;
#X obj 222 4 inlet;
#X obj 222 50 metro 10000;
#X obj 225 74 bng 15 250 50 0 empty empty empty 17 7 0 10 #fcfcfc #000000 #000000;
#X floatatom 181 206 5 0 0 0 - - - 0;
#X floatatom 170 50 5 0 0 0 - - - 0;
#X obj 180 125 bng 15 250 50 0 empty empty empty 17 7 0 10 #fcfcfc #000000 #000000;
#X obj 100 117 bng 15 250 50 0 empty empty empty 17 7 0 10 #fcfcfc #000000 #000000;
#X obj 46 90 bng 15 250 50 0 empty empty empty 17 7 0 10 #fcfcfc #000000 #000000;
#X obj 102 65 tgl 19 0 empty empty empty 0 -10 0 12 #fcfcfc #000000 #000000 0 1;
#X text 218 233 Why 119??;
#X obj 223 26 tgl 19 0 empty empty empty 0 -10 0 12 #fcfcfc #000000 #000000 0 1;
#X text 109 249 Being passed to a 16 mod;
#X connect 0 0 2 0;
#X connect 1 1 0 0;
#X connect 2 0 6 0;
#X connect 3 0 17 0;
#X connect 5 0 16 0;
#X connect 6 0 4 0;
#X connect 7 0 15 0;
#X connect 9 0 19 0;
#X connect 10 0 11 0;
#X connect 11 0 8 0;
#X connect 12 0 6 1;
#X connect 13 0 7 1;
#X connect 14 0 0 3;
#X connect 15 0 1 0;
#X connect 16 0 1 0;
#X connect 17 0 7 0;
#X connect 19 0 10 0;
#X restore 125 477 pd countertiming;
#X floatatom 132 542 5 0 0 0 - - - 0;
#X obj 281 533 hradio 15 1 0 5 empty empty empty 0 -8 0 10 #fcfcfc #000000 #000000 0;
#X obj 303 273 outlet;
#N canvas 401 491 553 267 other-scales 0;
#N canvas 844 47 296 325 hide-scale-message 0;
#X obj 90 21 inlet;
#X obj 19 20 inlet;
#X obj 90 84 cyclone/coll;
#C restore;
#X msg 17 184 240 67 0 107 0 0 14 47 0 67 247;
#X msg 56 239 240 67 0 107 0 0 15 47 0 66 247;
#X obj 17 206 list append;
#X obj 17 256 list;
#X obj 17 292 midiout 1;
#X obj 17 154 t b b;
#X obj 17 130 bng 15 250 50 0 empty empty empty 17 7 0 10 #fcfcfc #000000 #000000;
#X obj 19 67 t b f;
#X connect 0 0 2 0;
#X connect 1 0 10 0;
#X connect 2 0 5 1;
#X connect 3 0 5 0;
#X connect 4 0 6 1;
#X connect 5 0 6 0;
#X connect 6 0 7 0;
#X connect 8 0 3 0;
#X connect 8 1 4 0;
#X connect 9 0 8 0;
#X connect 10 0 9 0;
#X connect 10 1 2 0;
#X restore 27 209 pd hide-scale-message;
#X floatatom 27 185 5 0 0 0 - - - 0;
#X msg 180 144 read;
#X msg 132 111 read ./resources/three-coll-tunings.txt;
#X msg 253 150 0 \, Wilson_17;
#X msg 256 177 1 \, Wilson_31;
#X msg 259 204 2 \, Wilson_41;
#X obj 27 158 hradio 15 1 0 3 empty empty empty 0 -8 0 10 #fcfcfc #000000 #000000 0;
#X obj 27 127 inlet;
#X obj 144 38 loadbang;
#X connect 1 0 0 0;
#X connect 2 0 0 1;
#X connect 3 0 0 1;
#X connect 7 0 1 0;
#X connect 8 0 7 0;
#X connect 9 0 3 0;
#X restore 390 215 pd other-scales;
#X obj 390 195 hradio 15 1 0 3 empty empty empty 0 -8 0 10 #fcfcfc #000000 #000000 0;
#X obj 121 60 bng 15 250 50 0 empty empty empty 17 7 0 10 #fcfcfc #000000 #000000;
#X obj 121 37 inlet;
#X text 286 501 open spigot to change Motif voices;
#X obj 145 287 t b b b;
#X obj 125 456 bng 15 250 50 0 empty empty empty 17 7 0 10 #fcfcfc #000000 #000000;
#X text 146 456 step through bank;
#X text 287 486 step through bank favorites;
#X obj 180 419 tgl 24 0 empty empty empty 17 7 0 10 #fcfcfc #000000 #000000 0 1;
#X text 309 402 autostep through bank favorites;
#X obj 288 462 tgl 15 0 empty empty empty 17 7 0 10 #fcfcfc #000000 #000000 0 1;
#X obj 127 403 spigot;
#X obj 166 367 tgl 15 0 empty empty empty 17 7 0 10 #fcfcfc #000000 #000000 0 1;
#X obj 168 345 bng 15 250 50 0 empty empty empty 17 7 0 10 #fcfcfc #000000 #000000;
#X obj 234 503 bng 15 250 50 0 empty empty empty 17 7 0 10 #fcfcfc #000000 #000000;
#X text 203 344 connect scale change;
#X text 196 363 to Motif voice change;
#X text 388 250 Open Pentatonic-motif-scales to pick directly \; Or load "other-scales" AKA Wilson 17 \, 31 \, 41;
#X obj 75 154 spigot;
#X obj 272 10 inlet;
#X obj 272 42 tgl 15 0 empty empty empty 17 7 0 10 #fcfcfc #000000 #000000 0 1;
#X obj 277 168 spigot;
#X obj 273 76 - 1;
#X obj 273 100 abs;
#X obj 273 127 tgl 15 0 empty empty empty 17 7 0 10 #fcfcfc #000000 #000000 0 1;
#X obj 75 180 bng 15 250 50 0 empty empty empty 17 7 0 10 #fcfcfc #000000 #000000;
#X obj 277 191 bng 15 250 50 0 empty empty empty 17 7 0 10 #fcfcfc #000000 #000000;
#X obj 76 83 t b b;
#X obj 241 206 t b b;
#X obj 342 7 loadbang;
#X obj 342 33 t b b;
#X obj 142 61 cnv 15 100 60 empty empty BangScale! 20 12 0 14 #fce0c4 #404040 0;
#X obj 20 483 thigner;
#X obj 144 150 thigner;
#X text 520 184 There is an intermediary object!;
#X obj 508 568 cnv 15 100 60 empty empty BangFavs! 20 12 0 14 #fce0c4 #404040 0;
#X text 329 57 Toggles between top-level stepping voices vs. stepping scales;
#X text 260 579 bank-select (PRE1-3 \; User \; ) GM is not working as expected;
#X floatatom 339 559 5 0 0 0 - - - 0;
#X obj 213 398 cnv 15 50 30 empty empty autostep! 20 12 0 14 #ffc7c6 #404040 0;
#N canvas 110 143 755 376 unused 0;
#X obj 49 134 minilogue-program-outer;
#X floatatom 207 111 5 0 0 0 - - - 0;
#X obj 49 87 bng 15 250 50 0 empty empty empty 17 7 0 10 #fcfcfc #000000 #000000;
#N canvas 391 375 450 300 motif-program-outer 0;
#X obj 147 35 inlet;
#X floatatom 148 164 0 0 0 0 - - - 0;
#X obj 148 207 pgmout;
#X msg 187 165 1;
#X obj 148 65 counter;
#X floatatom 148 89 5 0 0 0 - - - 0;
#X obj 148 129 mod 127;
#X obj 238 147 loadbang;
#X obj 148 109 spigot;
#X obj 241 68 tgl 15 0 empty empty empty 17 7 0 10 #fcfcfc #000000 #000000 0 1;
#X obj 241 42 inlet;
#X text 200 187 assumes Motif is on Port 1;
#X connect 0 0 4 0;
#X connect 1 0 2 0;
#X connect 3 0 2 1;
#X connect 4 0 5 0;
#X connect 5 0 8 0;
#X connect 6 0 1 0;
#X connect 7 0 3 0;
#X connect 8 0 6 0;
#X connect 9 0 8 1;
#X connect 10 0 9 0;
#X restore 93 163 pd motif-program-outer;
#X obj 271 150 tgl 15 0 empty empty empty 17 7 0 10 #fcfcfc #000000 #000000 0 1;
#X text -36 176 autostep at 10s;
#X obj 128 108 tgl 15 0 empty empty empty 17 7 0 10 #fcfcfc #000000 #000000 0 1;
#X obj 127 64 cnv 15 100 40 empty empty TogglePgmChange! 20 12 0 14 #fcfcc4 #404040 0;
#X text 219 126 pick among n=1-100 Minilogue voices (default 100);
#X text 54 46 step through Minilogue by hand/auto;
#X text 291 148 Change Motif programs? (not using sysex);
#X connect 1 0 0 2;
#X connect 2 0 0 0;
#X connect 4 0 3 1;
#X connect 6 0 0 1;
#X restore 555 31 pd unused;
#X text 134 521 MOD 16ed;
#X connect 0 0 39 0;
#X connect 1 0 3 0;
#X connect 1 1 10 0;
#X connect 2 0 6 0;
#X connect 2 1 5 1;
#X connect 3 0 16 0;
#X connect 4 0 25 0;
#X connect 6 0 5 0;
#X connect 7 0 8 0;
#X connect 7 1 26 0;
#X connect 8 0 2 0;
#X connect 9 0 2 1;
#X connect 9 0 50 0;
#X connect 12 0 11 0;
#X connect 13 0 39 0;
#X connect 14 0 13 0;
#X connect 16 1 4 0;
#X connect 17 0 7 0;
#X connect 20 0 7 1;
#X connect 22 0 7 2;
#X connect 23 0 17 0;
#X connect 24 0 23 1;
#X connect 25 0 23 0;
#X connect 26 0 2 1;
#X connect 30 0 37 0;
#X connect 31 0 32 0;
#X connect 32 0 30 1;
#X connect 32 0 34 0;
#X connect 33 0 38 0;
#X connect 34 0 35 0;
#X connect 35 0 36 0;
#X connect 36 0 33 1;
#X connect 37 0 17 0;
#X connect 38 0 40 0;
#X connect 39 0 30 0;
#X connect 39 1 33 0;
#X connect 40 0 1 0;
#X connect 40 1 1 1;
#X connect 41 0 42 0;
#X connect 42 0 32 0;
#X connect 42 1 32 0;
#X connect 44 0 8 0;
#X connect 45 0 1 0;
#X restore 28 206 pd send-midi-messages;
#X obj 29 89 tgl 15 0 empty empty empty 17 7 0 10 #fcfcfc #000000 #000000 0 1;
#N canvas 600 250 450 300 parse-to-noteouts 0;
#X obj 45 41 inlet;
#X obj 45 71 cyclone/midiparse;
#X obj 404 133 r b;
#X obj 141 133 r b;
#N canvas 52 525 629 349 polysynth33 0;
#X obj 65 20 inlet;
#X obj 65 84 pack f f f;
#X obj 45 197 noteout;
#X obj 45 170 unpack float float;
#X obj 190 192 noteout;
#X obj 190 165 unpack float float;
#X obj 336 196 noteout;
#X obj 336 169 unpack float float;
#X obj 65 52 poly 4 1;
#X obj 65 115 route 1 2 3 4, f 18;
#X obj 483 194 noteout;
#X obj 483 167 unpack float float;
#X text 124 19 4-voice polyphonic synth;
#X obj 505 64 inlet;
#X obj 505 88 t b f;
#X msg 505 117 33;
#X connect 0 0 8 0;
#X connect 1 0 9 0;
#X connect 3 0 2 0;
#X connect 3 1 2 1;
#X connect 5 0 4 0;
#X connect 5 1 4 1;
#X connect 7 0 6 0;
#X connect 7 1 6 1;
#X connect 8 0 1 0;
#X connect 8 1 1 1;
#X connect 8 2 1 2;
#X connect 9 0 3 0;
#X connect 9 1 5 0;
#X connect 9 2 7 0;
#X connect 9 3 11 0;
#X connect 11 0 10 0;
#X connect 11 1 10 1;
#X connect 13 0 14 0;
#X connect 14 0 15 0;
#X connect 15 0 2 2;
#X connect 15 0 4 2;
#X connect 15 0 6 2;
#X connect 15 0 10 2;
#X restore 45 157 pd polysynth33;
#X text 150 158 ch33 is Minlogue;
#N canvas 52 525 629 349 4-voice-noteout 0;
#X obj 65 20 inlet;
#X obj 65 84 pack f f f;
#X obj 45 197 noteout;
#X obj 45 170 unpack float float;
#X obj 190 192 noteout;
#X obj 190 165 unpack float float;
#X obj 336 196 noteout;
#X obj 336 169 unpack float float;
#X obj 65 52 poly 4 1;
#X obj 65 115 route 1 2 3 4, f 18;
#X obj 483 194 noteout;
#X obj 483 167 unpack float float;
#X text 124 19 4-voice polyphonic synth;
#X obj 505 64 inlet;
#X obj 505 88 t b f;
#X msg 505 118 1;
#X connect 0 0 8 0;
#X connect 1 0 9 0;
#X connect 3 0 2 0;
#X connect 3 1 2 1;
#X connect 5 0 4 0;
#X connect 5 1 4 1;
#X connect 7 0 6 0;
#X connect 7 1 6 1;
#X connect 8 0 1 0;
#X connect 8 1 1 1;
#X connect 8 2 1 2;
#X connect 9 0 3 0;
#X connect 9 1 5 0;
#X connect 9 2 7 0;
#X connect 9 3 11 0;
#X connect 11 0 10 0;
#X connect 11 1 10 1;
#X connect 13 0 14 0;
#X connect 14 0 15 0;
#X connect 15 0 2 2;
#X connect 15 0 4 2;
#X connect 15 0 6 2;
#X connect 15 0 10 2;
#X restore 281 157 pd 4-voice-noteout;
#X connect 0 0 1 0;
#X connect 1 0 6 0;
#X connect 1 0 4 0;
#X connect 2 0 6 1;
#X connect 3 0 4 1;
#X restore 177 123 pd parse-to-noteouts;
#N canvas 193 96 857 507 parse-to-synths 0;
#X obj 209 12 inlet;
#N canvas 1021 309 345 266 polysynthTRI 0;
#X obj 41 10 inlet;
#N canvas 542 152 370 323 synth 0;
#X obj 234 124 / 127;
#X obj 219 204 *~;
#X obj 81 134 phasor~;
#X obj 81 102 mtof;
#X obj 81 31 inlet;
#X obj 219 273 outlet~;
#X obj 81 70 unpack float float;
#X obj 234 174 vline~;
#X msg 234 149 \$1 50;
#X obj 81 162 cyclone/triangle~ 0.9;
#X obj 219 236 /~ 3;
#X connect 0 0 8 0;
#X connect 1 0 10 0;
#X connect 2 0 9 0;
#X connect 3 0 2 0;
#X connect 4 0 6 0;
#X connect 6 0 3 0;
#X connect 6 1 0 0;
#X connect 7 0 1 1;
#X connect 8 0 7 0;
#X connect 9 0 1 0;
#X connect 10 0 5 0;
#X restore 41 151 pd synth;
#X obj 41 74 pack f f f;
#X obj 100 207 outlet~;
#N canvas 667 245 370 323 synth 0;
#X obj 234 124 / 127;
#X obj 219 204 *~;
#X obj 81 134 phasor~;
#X obj 81 102 mtof;
#X obj 81 31 inlet;
#X obj 219 273 outlet~;
#X obj 81 70 unpack float float;
#X obj 234 174 vline~;
#X msg 234 149 \$1 50;
#X obj 81 162 cyclone/triangle~ 0.9;
#X obj 219 236 /~ 3;
#X connect 0 0 8 0;
#X connect 1 0 10 0;
#X connect 2 0 9 0;
#X connect 3 0 2 0;
#X connect 4 0 6 0;
#X connect 6 0 3 0;
#X connect 6 1 0 0;
#X connect 7 0 1 1;
#X connect 8 0 7 0;
#X connect 9 0 1 0;
#X connect 10 0 5 0;
#X restore 118 150 pd synth;
#N canvas 667 245 370 323 synth 0;
#X obj 234 124 / 127;
#X obj 219 204 *~;
#X obj 81 134 phasor~;
#X obj 81 102 mtof;
#X obj 81 31 inlet;
#X obj 219 273 outlet~;
#X obj 81 70 unpack float float;
#X obj 234 174 vline~;
#X msg 234 149 \$1 50;
#X obj 81 162 cyclone/triangle~ 0.9;
#X obj 219 236 /~ 3;
#X connect 0 0 8 0;
#X connect 1 0 10 0;
#X connect 2 0 9 0;
#X connect 3 0 2 0;
#X connect 4 0 6 0;
#X connect 6 0 3 0;
#X connect 6 1 0 0;
#X connect 7 0 1 1;
#X connect 8 0 7 0;
#X connect 9 0 1 0;
#X connect 10 0 5 0;
#X restore 189 153 pd synth;
#X text 100 9 3-voice polyphonic synth;
#X obj 41 105 route 1 2 3, f 18;
#X obj 41 42 poly 3 1;
#X obj 269 152 outlet;
#X connect 0 0 8 0;
#X connect 1 0 3 0;
#X connect 2 0 7 0;
#X connect 4 0 3 0;
#X connect 5 0 3 0;
#X connect 7 0 1 0;
#X connect 7 0 9 0;
#X connect 7 1 4 0;
#X connect 7 2 5 0;
#X connect 8 0 2 0;
#X connect 8 1 2 1;
#X connect 8 2 2 2;
#X restore 433 24 pd polysynthTRI;
#X obj 207 106 pack f f f;
#X obj 209 42 cyclone/midiparse;
#N canvas 73 23 1254 721 translate-motif-synths 0;
#X obj 402 46 inlet;
#X obj 588 521 / 127;
#X obj 570 596 *~;
#X obj 574 472 phasor~;
#X obj 588 571 vline~;
#X obj 574 500 cyclone/triangle~ 0.9;
#X obj 568 633 /~ 3;
#X floatatom 402 99 5 0 0 0 - - - 0;
#X floatatom 525 99 5 0 0 0 - - - 0;
#X msg 247 253 60;
#X msg 281 254 61.117;
#X msg 334 254 64.98;
#X msg 380 254 66.097;
#X msg 436 253 69.96;
#X obj 346 314 + 0;
#X msg 484 253 60;
#X msg 519 253 61.117;
#X msg 574 253 64.98;
#X msg 625 252 66.097;
#X msg 678 254 69.96;
#X obj 648 299 + 12;
#X floatatom 574 447 5 0 0 0 - - - 0;
#X msg 11 254 60;
#X msg 44 254 61.117;
#X msg 99 254 64.98;
#X msg 147 253 66.097;
#X msg 201 253 69.96;
#X obj 104 311 - 12;
#X obj 566 665 outlet~;
#X msg 588 546 \$1 50 \, 0 600 200;
#X obj 402 135 sel 37 38 39 40 41 42 43 44 45 46 47 48 49 50 51 52 53 54 55 56 57 58 59;
#X msg 727 254 60;
#X msg 762 254 61.117;
#X msg 817 254 64.98;
#X msg 868 253 66.097;
#X msg 921 252 69.96;
#X obj 891 300 + 24;
#X msg 972 252 60;
#X msg 1007 252 61.117;
#X msg 1062 252 64.98;
#X msg 1113 251 66.097;
#X msg 1166 250 69.96;
#X obj 1136 298 + 36;
#X obj 972 91 unpack f f f f f;
#X msg 973 66 -24 -12 0 12 24;
#X msg 941 37 -12 0 12 24 36;
#X obj 575 386 + 0;
#X obj 576 419 mtof;
#X floatatom 653 393 5 0 0 0 - - - 0;
#X obj 402 73 unpack float float;
#X connect 0 0 49 0;
#X connect 1 0 29 0;
#X connect 2 0 6 0;
#X connect 3 0 5 0;
#X connect 4 0 2 1;
#X connect 5 0 2 0;
#X connect 6 0 28 0;
#X connect 7 0 30 0;
#X connect 8 0 1 0;
#X connect 9 0 14 0;
#X connect 10 0 14 0;
#X connect 11 0 14 0;
#X connect 12 0 14 0;
#X connect 13 0 14 0;
#X connect 14 0 46 0;
#X connect 15 0 20 0;
#X connect 16 0 20 0;
#X connect 17 0 20 0;
#X connect 18 0 20 0;
#X connect 19 0 20 0;
#X connect 20 0 46 0;
#X connect 21 0 3 0;
#X connect 22 0 27 0;
#X connect 23 0 27 0;
#X connect 24 0 27 0;
#X connect 25 0 27 0;
#X connect 26 0 27 0;
#X connect 27 0 46 0;
#X connect 29 0 4 0;
#X connect 30 0 22 0;
#X connect 30 1 23 0;
#X connect 30 2 24 0;
#X connect 30 3 25 0;
#X connect 30 4 26 0;
#X connect 30 5 9 0;
#X connect 30 6 10 0;
#X connect 30 7 11 0;
#X connect 30 8 12 0;
#X connect 30 9 13 0;
#X connect 30 10 15 0;
#X connect 30 11 16 0;
#X connect 30 12 17 0;
#X connect 30 13 18 0;
#X connect 30 14 19 0;
#X connect 30 15 31 0;
#X connect 30 16 32 0;
#X connect 30 17 33 0;
#X connect 30 18 34 0;
#X connect 30 19 35 0;
#X connect 30 20 37 0;
#X connect 30 21 38 0;
#X connect 30 22 39 0;
#X connect 30 23 40 0;
#X connect 31 0 36 0;
#X connect 32 0 36 0;
#X connect 33 0 36 0;
#X connect 34 0 36 0;
#X connect 35 0 36 0;
#X connect 36 0 46 0;
#X connect 37 0 42 0;
#X connect 38 0 42 0;
#X connect 39 0 42 0;
#X connect 40 0 42 0;
#X connect 41 0 42 0;
#X connect 42 0 46 0;
#X connect 43 0 27 1;
#X connect 43 1 14 1;
#X connect 43 2 20 1;
#X connect 43 3 36 1;
#X connect 43 4 42 1;
#X connect 44 0 43 0;
#X connect 45 0 43 0;
#X connect 46 0 47 0;
#X connect 47 0 21 0;
#X connect 48 0 46 1;
#X connect 49 0 7 0;
#X connect 49 1 8 0;
#X restore 10 201 pd translate-motif-synths;
#X obj 13 313 ./out~;
#X obj 8 276 *~ 1;
#N canvas 88 23 1308 674 translate-motif-synths 0;
#X obj 402 46 inlet;
#X obj 588 521 / 127;
#X obj 570 596 *~;
#X obj 574 472 phasor~;
#X obj 588 571 vline~;
#X obj 574 500 cyclone/triangle~ 0.9;
#X obj 568 633 /~ 3;
#X floatatom 403 96 5 0 0 0 - - - 0;
#X floatatom 471 98 5 0 0 0 - - - 0;
#X obj 402 73 unpack float float float float;
#X msg 247 253 60;
#X msg 281 254 61.117;
#X msg 334 254 64.98;
#X msg 380 254 66.097;
#X msg 436 253 69.96;
#X obj 346 314 + 0;
#X msg 484 253 60;
#X msg 519 253 61.117;
#X msg 574 253 64.98;
#X msg 625 252 66.097;
#X msg 678 254 69.96;
#X obj 648 299 + 12;
#X floatatom 574 447 5 0 0 0 - - - 0;
#X msg 11 254 60;
#X msg 44 254 61.117;
#X msg 99 254 64.98;
#X msg 147 253 66.097;
#X msg 201 253 69.96;
#X obj 104 311 - 12;
#X obj 566 665 outlet~;
#X msg 588 546 \$1 50 \, 0 600 200;
#X obj 403 138 sel 37 38 39 40 41 42 43 44 45 46 47 48 49 50 51 52 53 54 55 56 57 58 59;
#X msg 727 254 60;
#X msg 762 254 61.117;
#X msg 817 254 64.98;
#X msg 868 253 66.097;
#X msg 921 252 69.96;
#X obj 891 300 + 24;
#X msg 972 252 60;
#X msg 1007 252 61.117;
#X msg 1062 252 64.98;
#X msg 1113 251 66.097;
#X msg 1166 250 69.96;
#X obj 1136 298 + 36;
#X obj 972 91 unpack f f f f f;
#X msg 973 66 -24 -12 0 12 24;
#X msg 941 37 -12 0 12 24 36;
#X obj 575 386 + 0;
#X obj 576 419 mtof;
#X floatatom 653 393 5 0 0 0 - - - 0;
#X connect 0 0 9 0;
#X connect 1 0 30 0;
#X connect 2 0 6 0;
#X connect 3 0 5 0;
#X connect 4 0 2 1;
#X connect 5 0 2 0;
#X connect 6 0 29 0;
#X connect 7 0 31 0;
#X connect 8 0 1 0;
#X connect 9 0 7 0;
#X connect 9 1 8 0;
#X connect 10 0 15 0;
#X connect 11 0 15 0;
#X connect 12 0 15 0;
#X connect 13 0 15 0;
#X connect 14 0 15 0;
#X connect 15 0 47 0;
#X connect 16 0 21 0;
#X connect 17 0 21 0;
#X connect 18 0 21 0;
#X connect 19 0 21 0;
#X connect 20 0 21 0;
#X connect 21 0 47 0;
#X connect 22 0 3 0;
#X connect 23 0 28 0;
#X connect 24 0 28 0;
#X connect 25 0 28 0;
#X connect 26 0 28 0;
#X connect 27 0 28 0;
#X connect 28 0 47 0;
#X connect 30 0 4 0;
#X connect 31 0 23 0;
#X connect 31 1 24 0;
#X connect 31 2 25 0;
#X connect 31 3 26 0;
#X connect 31 4 27 0;
#X connect 31 5 10 0;
#X connect 31 6 11 0;
#X connect 31 7 12 0;
#X connect 31 8 13 0;
#X connect 31 9 14 0;
#X connect 31 10 16 0;
#X connect 31 11 17 0;
#X connect 31 12 18 0;
#X connect 31 13 19 0;
#X connect 31 14 20 0;
#X connect 31 15 32 0;
#X connect 31 16 33 0;
#X connect 31 17 34 0;
#X connect 31 18 35 0;
#X connect 31 19 36 0;
#X connect 31 20 38 0;
#X connect 31 21 39 0;
#X connect 31 22 40 0;
#X connect 31 23 41 0;
#X connect 32 0 37 0;
#X connect 33 0 37 0;
#X connect 34 0 37 0;
#X connect 35 0 37 0;
#X connect 36 0 37 0;
#X connect 37 0 47 0;
#X connect 38 0 43 0;
#X connect 39 0 43 0;
#X connect 40 0 43 0;
#X connect 41 0 43 0;
#X connect 42 0 43 0;
#X connect 43 0 47 0;
#X connect 44 0 28 1;
#X connect 44 1 15 1;
#X connect 44 2 21 1;
#X connect 44 3 37 1;
#X connect 44 4 43 1;
#X connect 45 0 44 0;
#X connect 46 0 44 0;
#X connect 47 0 48 0;
#X connect 48 0 22 0;
#X connect 49 0 47 1;
#X restore 38 222 pd translate-motif-synths;
#N canvas 88 23 1308 674 translate-motif-synths 0;
#X obj 402 46 inlet;
#X obj 588 521 / 127;
#X obj 570 596 *~;
#X obj 574 472 phasor~;
#X obj 588 571 vline~;
#X obj 574 500 cyclone/triangle~ 0.9;
#X obj 568 633 /~ 3;
#X floatatom 403 96 5 0 0 0 - - - 0;
#X floatatom 471 98 5 0 0 0 - - - 0;
#X obj 402 73 unpack float float float float;
#X msg 247 253 60;
#X msg 281 254 61.117;
#X msg 334 254 64.98;
#X msg 380 254 66.097;
#X msg 436 253 69.96;
#X obj 346 314 + 0;
#X msg 484 253 60;
#X msg 519 253 61.117;
#X msg 574 253 64.98;
#X msg 625 252 66.097;
#X msg 678 254 69.96;
#X obj 648 299 + 12;
#X floatatom 574 447 5 0 0 0 - - - 0;
#X msg 11 254 60;
#X msg 44 254 61.117;
#X msg 99 254 64.98;
#X msg 147 253 66.097;
#X msg 201 253 69.96;
#X obj 104 311 - 12;
#X obj 566 665 outlet~;
#X msg 588 546 \$1 50 \, 0 600 200;
#X obj 403 138 sel 37 38 39 40 41 42 43 44 45 46 47 48 49 50 51 52 53 54 55 56 57 58 59;
#X msg 727 254 60;
#X msg 762 254 61.117;
#X msg 817 254 64.98;
#X msg 868 253 66.097;
#X msg 921 252 69.96;
#X obj 891 300 + 24;
#X msg 972 252 60;
#X msg 1007 252 61.117;
#X msg 1062 252 64.98;
#X msg 1113 251 66.097;
#X msg 1166 250 69.96;
#X obj 1136 298 + 36;
#X obj 972 91 unpack f f f f f;
#X msg 973 66 -24 -12 0 12 24;
#X msg 941 37 -12 0 12 24 36;
#X obj 575 386 + 0;
#X obj 576 419 mtof;
#X floatatom 653 393 5 0 0 0 - - - 0;
#X connect 0 0 9 0;
#X connect 1 0 30 0;
#X connect 2 0 6 0;
#X connect 3 0 5 0;
#X connect 4 0 2 1;
#X connect 5 0 2 0;
#X connect 6 0 29 0;
#X connect 7 0 31 0;
#X connect 8 0 1 0;
#X connect 9 0 7 0;
#X connect 9 1 8 0;
#X connect 10 0 15 0;
#X connect 11 0 15 0;
#X connect 12 0 15 0;
#X connect 13 0 15 0;
#X connect 14 0 15 0;
#X connect 15 0 47 0;
#X connect 16 0 21 0;
#X connect 17 0 21 0;
#X connect 18 0 21 0;
#X connect 19 0 21 0;
#X connect 20 0 21 0;
#X connect 21 0 47 0;
#X connect 22 0 3 0;
#X connect 23 0 28 0;
#X connect 24 0 28 0;
#X connect 25 0 28 0;
#X connect 26 0 28 0;
#X connect 27 0 28 0;
#X connect 28 0 47 0;
#X connect 30 0 4 0;
#X connect 31 0 23 0;
#X connect 31 1 24 0;
#X connect 31 2 25 0;
#X connect 31 3 26 0;
#X connect 31 4 27 0;
#X connect 31 5 10 0;
#X connect 31 6 11 0;
#X connect 31 7 12 0;
#X connect 31 8 13 0;
#X connect 31 9 14 0;
#X connect 31 10 16 0;
#X connect 31 11 17 0;
#X connect 31 12 18 0;
#X connect 31 13 19 0;
#X connect 31 14 20 0;
#X connect 31 15 32 0;
#X connect 31 16 33 0;
#X connect 31 17 34 0;
#X connect 31 18 35 0;
#X connect 31 19 36 0;
#X connect 31 20 38 0;
#X connect 31 21 39 0;
#X connect 31 22 40 0;
#X connect 31 23 41 0;
#X connect 32 0 37 0;
#X connect 33 0 37 0;
#X connect 34 0 37 0;
#X connect 35 0 37 0;
#X connect 36 0 37 0;
#X connect 37 0 47 0;
#X connect 38 0 43 0;
#X connect 39 0 43 0;
#X connect 40 0 43 0;
#X connect 41 0 43 0;
#X connect 42 0 43 0;
#X connect 43 0 47 0;
#X connect 44 0 28 1;
#X connect 44 1 15 1;
#X connect 44 2 21 1;
#X connect 44 3 37 1;
#X connect 44 4 43 1;
#X connect 45 0 44 0;
#X connect 46 0 44 0;
#X connect 47 0 48 0;
#X connect 48 0 22 0;
#X connect 49 0 47 1;
#X restore 62 246 pd translate-motif-synths;
#X obj 207 74 poly 4 1;
#X obj 207 137 route 1 2 3 4, f 18;
#N canvas 88 23 1308 674 translate-motif-synths 0;
#X obj 402 46 inlet;
#X obj 588 521 / 127;
#X obj 570 596 *~;
#X obj 574 472 phasor~;
#X obj 588 571 vline~;
#X obj 574 500 cyclone/triangle~ 0.9;
#X obj 568 633 /~ 3;
#X floatatom 403 96 5 0 0 0 - - - 0;
#X floatatom 471 98 5 0 0 0 - - - 0;
#X obj 402 73 unpack float float float float;
#X msg 247 253 60;
#X msg 281 254 61.117;
#X msg 334 254 64.98;
#X msg 380 254 66.097;
#X msg 436 253 69.96;
#X obj 346 314 + 0;
#X msg 484 253 60;
#X msg 519 253 61.117;
#X msg 574 253 64.98;
#X msg 625 252 66.097;
#X msg 678 254 69.96;
#X obj 648 299 + 12;
#X floatatom 574 447 5 0 0 0 - - - 0;
#X msg 11 254 60;
#X msg 44 254 61.117;
#X msg 99 254 64.98;
#X msg 147 253 66.097;
#X msg 201 253 69.96;
#X obj 104 311 - 12;
#X obj 566 665 outlet~;
#X msg 588 546 \$1 50 \, 0 600 200;
#X obj 403 138 sel 37 38 39 40 41 42 43 44 45 46 47 48 49 50 51 52 53 54 55 56 57 58 59;
#X msg 727 254 60;
#X msg 762 254 61.117;
#X msg 817 254 64.98;
#X msg 868 253 66.097;
#X msg 921 252 69.96;
#X obj 891 300 + 24;
#X msg 972 252 60;
#X msg 1007 252 61.117;
#X msg 1062 252 64.98;
#X msg 1113 251 66.097;
#X msg 1166 250 69.96;
#X obj 1136 298 + 36;
#X obj 972 91 unpack f f f f f;
#X msg 973 66 -24 -12 0 12 24;
#X msg 941 37 -12 0 12 24 36;
#X obj 575 386 + 0;
#X obj 576 419 mtof;
#X floatatom 653 393 5 0 0 0 - - - 0;
#X connect 0 0 9 0;
#X connect 1 0 30 0;
#X connect 2 0 6 0;
#X connect 3 0 5 0;
#X connect 4 0 2 1;
#X connect 5 0 2 0;
#X connect 6 0 29 0;
#X connect 7 0 31 0;
#X connect 8 0 1 0;
#X connect 9 0 7 0;
#X connect 9 1 8 0;
#X connect 10 0 15 0;
#X connect 11 0 15 0;
#X connect 12 0 15 0;
#X connect 13 0 15 0;
#X connect 14 0 15 0;
#X connect 15 0 47 0;
#X connect 16 0 21 0;
#X connect 17 0 21 0;
#X connect 18 0 21 0;
#X connect 19 0 21 0;
#X connect 20 0 21 0;
#X connect 21 0 47 0;
#X connect 22 0 3 0;
#X connect 23 0 28 0;
#X connect 24 0 28 0;
#X connect 25 0 28 0;
#X connect 26 0 28 0;
#X connect 27 0 28 0;
#X connect 28 0 47 0;
#X connect 30 0 4 0;
#X connect 31 0 23 0;
#X connect 31 1 24 0;
#X connect 31 2 25 0;
#X connect 31 3 26 0;
#X connect 31 4 27 0;
#X connect 31 5 10 0;
#X connect 31 6 11 0;
#X connect 31 7 12 0;
#X connect 31 8 13 0;
#X connect 31 9 14 0;
#X connect 31 10 16 0;
#X connect 31 11 17 0;
#X connect 31 12 18 0;
#X connect 31 13 19 0;
#X connect 31 14 20 0;
#X connect 31 15 32 0;
#X connect 31 16 33 0;
#X connect 31 17 34 0;
#X connect 31 18 35 0;
#X connect 31 19 36 0;
#X connect 31 20 38 0;
#X connect 31 21 39 0;
#X connect 31 22 40 0;
#X connect 31 23 41 0;
#X connect 32 0 37 0;
#X connect 33 0 37 0;
#X connect 34 0 37 0;
#X connect 35 0 37 0;
#X connect 36 0 37 0;
#X connect 37 0 47 0;
#X connect 38 0 43 0;
#X connect 39 0 43 0;
#X connect 40 0 43 0;
#X connect 41 0 43 0;
#X connect 42 0 43 0;
#X connect 43 0 47 0;
#X connect 44 0 28 1;
#X connect 44 1 15 1;
#X connect 44 2 21 1;
#X connect 44 3 37 1;
#X connect 44 4 43 1;
#X connect 45 0 44 0;
#X connect 46 0 44 0;
#X connect 47 0 48 0;
#X connect 48 0 22 0;
#X connect 49 0 47 1;
#X restore 96 268 pd translate-motif-synths;
#X obj 273 170 play-noisy-scales;
#X obj 387 462 ./out~;
#X obj 404 426 *~ 1;
#X obj 312 241 play-noisy-scales;
#X obj 401 296 play-noisy-scales;
#X obj 498 359 play-noisy-scales;
#X connect 0 0 3 0;
#X connect 2 0 10 0;
#X connect 3 0 9 0;
#X connect 4 0 6 0;
#X connect 6 0 5 0;
#X connect 6 0 5 1;
#X connect 7 0 6 0;
#X connect 8 0 6 0;
#X connect 9 0 2 0;
#X connect 9 1 2 1;
#X connect 9 2 2 2;
#X connect 10 0 4 0;
#X connect 10 0 12 0;
#X connect 10 1 7 0;
#X connect 10 1 15 0;
#X connect 10 2 8 0;
#X connect 10 3 11 0;
#X connect 10 3 16 0;
#X connect 10 4 17 0;
#X connect 11 0 6 0;
#X connect 12 0 14 0;
#X connect 14 0 13 0;
#X connect 14 0 13 1;
#X connect 15 0 14 0;
#X connect 16 0 14 0;
#X connect 17 0 14 0;
#X restore 145 235 pd parse-to-synths;
#X obj 100 167 bng 15 250 50 0 empty empty empty 17 7 0 10 #fcfcfc #000000 #000000;
#X text 179 97 unused?;
#X obj 172 162 tgl 15 0 empty empty empty 17 7 0 10 #fcfcfc #000000 #000000 0 1;
#X obj 145 45 bng 15 250 50 0 empty empty empty 17 7 0 10 #fcfcfc #000000 #000000;
#X text 172 48 bang to open MIDI file for playback;
#X text 185 177 Toggle off: bang for next scale. Toggle on: bang for next voice--same scale;
#X connect 18 0 19 0;
#X connect 18 1 21 0;
#X connect 18 1 22 0;
#X connect 20 0 18 0;
#X connect 23 0 19 1;
#X connect 25 0 19 2;
#X connect 26 0 18 1;
