#N canvas 160 23 647 472 12;
#X obj 314 242 cyclone/midiparse;
#X obj 292 63 tgl 22 0 empty empty empty 17 7 0 10 -216373 -66577 -1
0 1;
#X msg 299 130 stop;
#X obj 263 134 bng 17 250 50 0 empty empty empty 17 7 0 10 -228856
-1 -1;
#X text 322 65 play/stop;
#X obj 314 214 cyclone/midiflush;
#X msg 373 163 bang;
#X text 416 157 flush hanging;
#X text 428 175 MIDI notes;
#X obj 292 95 select 1 0;
#X obj 87 37 loadbang;
#X msg 373 126 read;
#X text 431 107 open another;
#X text 461 128 file;
#N canvas 638 210 345 266 polysynth 0;
#X obj 65 20 inlet;
#N canvas 667 245 566 520 synth 0;
#X obj 205 308 / 127;
#X obj 186 407 *~;
#X obj 311 323 phasor~;
#X obj 311 291 mtof;
#X obj 26 24 inlet;
#X obj 186 476 outlet~;
#X obj 26 63 unpack float float;
#X obj 205 358 vline~;
#X msg 205 333 \$1 50;
#X obj 311 351 cyclone/triangle~ 0.9;
#X obj 186 439 /~ 3;
#X obj 220 38 inlet;
#X obj 203 187 f;
#X floatatom 203 211 5 0 0 0 - - -;
#X obj 222 70 unpack f f f f f;
#X floatatom 205 100 5 0 0 0 - - -;
#X floatatom 249 100 5 0 0 0 - - -;
#X floatatom 294 100 5 0 0 0 - - -;
#X floatatom 338 100 5 0 0 0 - - -;
#X floatatom 381 100 5 0 0 0 - - -;
#X floatatom 27 86 5 0 0 0 - - -;
#X obj 27 107 mod 5;
#X floatatom 28 134 5 0 0 0 - - -;
#X obj 207 143 sel 0 1 2 3 4;
#X obj 251 187 f;
#X floatatom 251 211 5 0 0 0 - - -;
#X obj 299 186 f;
#X floatatom 299 210 5 0 0 0 - - -;
#X obj 347 186 f;
#X floatatom 347 210 5 0 0 0 - - -;
#X obj 400 186 f;
#X floatatom 400 210 5 0 0 0 - - -;
#X floatatom 311 260 5 0 0 0 - - -;
#X floatatom 511 90 3 0 0 0 - - -;
#X obj 466 38 notein;
#X obj 466 64 stripnote;
#X floatatom 466 89 3 0 0 0 - - -;
#X obj 466 109 bng 20 250 50 0 empty empty empty 17 7 0 10 -262144
-1 -1;
#X connect 0 0 8 0;
#X connect 1 0 10 0;
#X connect 2 0 9 0;
#X connect 3 0 2 0;
#X connect 4 0 6 0;
#X connect 6 0 20 0;
#X connect 6 1 0 0;
#X connect 7 0 1 1;
#X connect 8 0 7 0;
#X connect 9 0 1 0;
#X connect 10 0 5 0;
#X connect 11 0 14 0;
#X connect 12 0 13 0;
#X connect 13 0 32 0;
#X connect 14 0 15 0;
#X connect 14 1 16 0;
#X connect 14 2 17 0;
#X connect 14 3 18 0;
#X connect 14 4 19 0;
#X connect 15 0 12 1;
#X connect 16 0 24 1;
#X connect 17 0 26 1;
#X connect 18 0 28 1;
#X connect 19 0 30 1;
#X connect 20 0 21 0;
#X connect 21 0 22 0;
#X connect 22 0 23 0;
#X connect 23 0 12 0;
#X connect 23 1 24 0;
#X connect 23 2 26 0;
#X connect 23 3 28 0;
#X connect 23 4 30 0;
#X connect 24 0 25 0;
#X connect 25 0 32 0;
#X connect 26 0 27 0;
#X connect 27 0 32 0;
#X connect 28 0 29 0;
#X connect 29 0 32 0;
#X connect 30 0 31 0;
#X connect 31 0 32 0;
#X connect 32 0 3 0;
#X connect 34 0 35 0;
#X connect 34 1 35 1;
#X connect 35 0 36 0;
#X connect 35 0 20 0;
#X connect 35 1 33 0;
#X connect 35 1 0 0;
#X connect 36 0 37 0;
#X restore 41 151 pd synth;
#X obj 65 84 pack f f f;
#X obj 100 207 outlet~;
#X text 124 19 3-voice polyphonic synth;
#X obj 65 115 route 1 2 3, f 18;
#X obj 65 52 poly 3 1;
#X obj 262 44 inlet;
#N canvas 667 245 566 520 synth 0;
#X obj 199 225 / 127;
#X obj 137 348 *~;
#X obj 26 259 phasor~;
#X obj 26 227 mtof;
#X obj 72 25 inlet;
#X obj 137 417 outlet~;
#X obj 72 64 unpack float float;
#X obj 199 275 vline~;
#X msg 199 250 \$1 50;
#X obj 26 287 cyclone/triangle~ 0.9;
#X obj 137 380 /~ 3;
#X obj 329 25 inlet;
#X obj 312 174 f;
#X floatatom 312 198 5 0 0 0 - - -;
#X obj 331 57 unpack f f f f f;
#X floatatom 314 87 5 0 0 0 - - -;
#X floatatom 358 87 5 0 0 0 - - -;
#X floatatom 403 87 5 0 0 0 - - -;
#X floatatom 447 87 5 0 0 0 - - -;
#X floatatom 490 87 5 0 0 0 - - -;
#X floatatom 73 87 5 0 0 0 - - -;
#X obj 73 108 mod 5;
#X floatatom 74 135 5 0 0 0 - - -;
#X obj 316 130 sel 0 1 2 3 4;
#X obj 360 174 f;
#X floatatom 360 198 5 0 0 0 - - -;
#X obj 408 173 f;
#X floatatom 408 197 5 0 0 0 - - -;
#X obj 456 173 f;
#X floatatom 456 197 5 0 0 0 - - -;
#X obj 509 173 f;
#X floatatom 509 197 5 0 0 0 - - -;
#X floatatom 420 247 5 0 0 0 - - -;
#X connect 0 0 8 0;
#X connect 1 0 10 0;
#X connect 2 0 9 0;
#X connect 3 0 2 0;
#X connect 4 0 6 0;
#X connect 6 0 20 0;
#X connect 6 1 0 0;
#X connect 7 0 1 1;
#X connect 8 0 7 0;
#X connect 9 0 1 0;
#X connect 10 0 5 0;
#X connect 11 0 14 0;
#X connect 12 0 13 0;
#X connect 13 0 32 0;
#X connect 14 0 15 0;
#X connect 14 1 16 0;
#X connect 14 2 17 0;
#X connect 14 3 18 0;
#X connect 14 4 19 0;
#X connect 15 0 12 1;
#X connect 16 0 24 1;
#X connect 17 0 26 1;
#X connect 18 0 28 1;
#X connect 19 0 30 1;
#X connect 20 0 21 0;
#X connect 21 0 22 0;
#X connect 22 0 23 0;
#X connect 23 0 12 0;
#X connect 23 1 24 0;
#X connect 23 2 26 0;
#X connect 23 3 28 0;
#X connect 23 4 30 0;
#X connect 24 0 25 0;
#X connect 25 0 32 0;
#X connect 26 0 27 0;
#X connect 27 0 32 0;
#X connect 28 0 29 0;
#X connect 29 0 32 0;
#X connect 30 0 31 0;
#X connect 31 0 32 0;
#X connect 32 0 3 0;
#X restore 130 155 pd synth;
#N canvas 667 245 566 520 synth 0;
#X obj 199 225 / 127;
#X obj 137 348 *~;
#X obj 26 259 phasor~;
#X obj 26 227 mtof;
#X obj 72 25 inlet;
#X obj 137 417 outlet~;
#X obj 72 64 unpack float float;
#X obj 199 275 vline~;
#X msg 199 250 \$1 50;
#X obj 26 287 cyclone/triangle~ 0.9;
#X obj 137 380 /~ 3;
#X obj 329 25 inlet;
#X obj 312 174 f;
#X floatatom 312 198 5 0 0 0 - - -;
#X obj 331 57 unpack f f f f f;
#X floatatom 314 87 5 0 0 0 - - -;
#X floatatom 358 87 5 0 0 0 - - -;
#X floatatom 403 87 5 0 0 0 - - -;
#X floatatom 447 87 5 0 0 0 - - -;
#X floatatom 490 87 5 0 0 0 - - -;
#X floatatom 73 87 5 0 0 0 - - -;
#X obj 73 108 mod 5;
#X floatatom 74 135 5 0 0 0 - - -;
#X obj 316 130 sel 0 1 2 3 4;
#X obj 360 174 f;
#X floatatom 360 198 5 0 0 0 - - -;
#X obj 408 173 f;
#X floatatom 408 197 5 0 0 0 - - -;
#X obj 456 173 f;
#X floatatom 456 197 5 0 0 0 - - -;
#X obj 509 173 f;
#X floatatom 509 197 5 0 0 0 - - -;
#X floatatom 420 247 5 0 0 0 - - -;
#X connect 0 0 8 0;
#X connect 1 0 10 0;
#X connect 2 0 9 0;
#X connect 3 0 2 0;
#X connect 4 0 6 0;
#X connect 6 0 20 0;
#X connect 6 1 0 0;
#X connect 7 0 1 1;
#X connect 8 0 7 0;
#X connect 9 0 1 0;
#X connect 10 0 5 0;
#X connect 11 0 14 0;
#X connect 12 0 13 0;
#X connect 13 0 32 0;
#X connect 14 0 15 0;
#X connect 14 1 16 0;
#X connect 14 2 17 0;
#X connect 14 3 18 0;
#X connect 14 4 19 0;
#X connect 15 0 12 1;
#X connect 16 0 24 1;
#X connect 17 0 26 1;
#X connect 18 0 28 1;
#X connect 19 0 30 1;
#X connect 20 0 21 0;
#X connect 21 0 22 0;
#X connect 22 0 23 0;
#X connect 23 0 12 0;
#X connect 23 1 24 0;
#X connect 23 2 26 0;
#X connect 23 3 28 0;
#X connect 23 4 30 0;
#X connect 24 0 25 0;
#X connect 25 0 32 0;
#X connect 26 0 27 0;
#X connect 27 0 32 0;
#X connect 28 0 29 0;
#X connect 29 0 32 0;
#X connect 30 0 31 0;
#X connect 31 0 32 0;
#X connect 32 0 3 0;
#X restore 205 157 pd synth;
#X connect 0 0 6 0;
#X connect 1 0 3 0;
#X connect 2 0 5 0;
#X connect 5 0 1 0;
#X connect 5 1 8 0;
#X connect 5 2 9 0;
#X connect 6 0 2 0;
#X connect 6 1 2 1;
#X connect 6 2 2 2;
#X connect 7 0 1 1;
#X connect 7 0 8 1;
#X connect 7 0 9 1;
#X connect 8 0 3 0;
#X connect 9 0 3 0;
#X restore 314 332 pd polysynth;
#X obj 304 381 ./out~;
#X msg 263 39 delay 500;
#X obj 263 165 cyclone/seq;
#X msg 65 147 read four-voice-chords.mid;
#N canvas 52 525 629 349 polysynth2 0;
#X obj 65 20 inlet;
#X obj 65 84 pack f f f;
#X obj 45 197 noteout;
#X obj 45 170 unpack float float;
#X obj 190 192 noteout;
#X obj 190 165 unpack float float;
#X obj 336 196 noteout;
#X obj 336 169 unpack float float;
#X obj 65 52 poly 4 1;
#X obj 65 115 route 1 2 3 4, f 18;
#X obj 483 194 noteout;
#X obj 483 167 unpack float float;
#X text 124 19 4-voice polyphonic synth;
#X obj 505 64 inlet;
#X obj 505 88 t b f;
#X msg 505 118 1;
#X connect 0 0 8 0;
#X connect 1 0 9 0;
#X connect 3 0 2 0;
#X connect 3 1 2 1;
#X connect 5 0 4 0;
#X connect 5 1 4 1;
#X connect 7 0 6 0;
#X connect 7 1 6 1;
#X connect 8 0 1 0;
#X connect 8 1 1 1;
#X connect 8 2 1 2;
#X connect 9 0 3 0;
#X connect 9 1 5 0;
#X connect 9 2 7 0;
#X connect 9 3 11 0;
#X connect 11 0 10 0;
#X connect 11 1 10 1;
#X connect 13 0 14 0;
#X connect 14 0 15 0;
#X connect 15 0 2 2;
#X connect 15 0 4 2;
#X connect 15 0 6 2;
#X connect 15 0 10 2;
#X restore 410 332 pd polysynth2;
#N canvas 708 222 280 376 recordMIDI 0;
#X obj 33 154 notein;
#X obj 33 204 cyclone/midiformat;
#X obj 33 178 pack;
#X obj 33 284 cyclone/seq;
#X msg 183 94 record;
#X msg 132 266 print;
#X msg 176 267 start;
#X obj 151 13 inlet;
#X msg 183 138 write;
#X msg 183 116 stop;
#X obj 33 327 outlet;
#X connect 0 0 2 0;
#X connect 0 1 2 1;
#X connect 1 0 3 0;
#X connect 2 0 1 0;
#X connect 3 0 10 0;
#X connect 4 0 3 0;
#X connect 5 0 3 0;
#X connect 6 0 3 0;
#X connect 8 0 3 0;
#X connect 9 0 3 0;
#X restore 514 186 pd recordMIDI;
#X obj 153 38 loadbang;
#X obj 153 62 s b;
#X obj 498 308 r b;
#N canvas 373 1047 450 300 README 0;
#X text 23 20 How Do I work?;
#X symbolatom 160 26 10 0 0 0 - - -;
#X text 24 66 Make sure you have correct MIDI in and Out;
#X text 23 92 need RECORD message to seq object;
#X text 23 142 need WRITE message to save as MIDI file;
#X text 21 115 need STOP message to halt all operations;
#X text 68 258 need START message to play;
#X text 70 240 need NOTEOUT objects receiving data to hear;
#X text 20 183 see polysynth2 for playback;
#X text 69 220 need correct Channel for sending out;
#X text 70 201 need READ to get a file you have recorded;
#X restore 514 48 pd README;
#X obj 96 186 pentatonic-motif-scales;
#X obj 35 286 bank-motif-voices;
#N canvas 732 247 318 299 timing 0;
#X obj 151 169 counter;
#X obj 119 141 t b b;
#X obj 119 117 metro 1000;
#X floatatom 153 190 5 0 0 0 - - -;
#X obj 119 71 inlet;
#X obj 184 39 inlet;
#X obj 153 247 outlet;
#X obj 33 124 inlet;
#X obj 216 76 sel 178;
#X obj 215 101 bng 15 250 50 0 empty empty empty 17 7 0 10 -262144
-1 -1;
#X obj 263 110 bng 15 250 50 0 empty empty empty 17 7 0 10 -262144
-1 -1;
#X obj 153 217 mod 119;
#X connect 0 0 3 0;
#X connect 1 1 0 0;
#X connect 2 0 1 0;
#X connect 3 0 11 0;
#X connect 4 0 2 0;
#X connect 5 0 8 0;
#X connect 7 0 1 0;
#X connect 8 0 9 0;
#X connect 8 1 10 0;
#X connect 9 0 0 0;
#X connect 11 0 6 0;
#X restore 36 247 pd timing;
#X floatatom 96 213 5 0 0 0 - - -;
#X msg 413 77 read ./resources/big-multi.mid;
#X connect 0 0 19 0;
#X connect 0 0 14 0;
#X connect 1 0 9 0;
#X connect 2 0 17 0;
#X connect 3 0 17 0;
#X connect 3 0 25 0;
#X connect 5 0 0 0;
#X connect 6 0 5 0;
#X connect 9 0 3 0;
#X connect 9 1 2 0;
#X connect 9 1 6 0;
#X connect 11 0 17 0;
#X connect 14 0 15 0;
#X connect 14 0 15 1;
#X connect 16 0 17 0;
#X connect 17 0 5 0;
#X connect 17 1 3 0;
#X connect 18 0 17 0;
#X connect 20 0 5 0;
#X connect 21 0 22 0;
#X connect 23 0 19 1;
#X connect 25 0 28 0;
#X connect 25 1 14 1;
#X connect 27 0 26 0;
#X connect 28 0 27 2;
#X connect 29 0 17 0;
