#N canvas 818 38 1053 662 12;
#X obj 189 399 cyclone/coll;
#C restore;
#X msg 227 427 \; scale-name label \$1;
#X floatatom 14 335 5 0 0 0 - - - 0;
#X msg 175 160 read ./resources/penta-scales2.txt;
#N canvas 469 746 1050 672 selector 0;
#X obj 8 40 vradio 15 1 0 16 empty empty empty 0 -8 0 10 #fcfcfc #000000 #000000 0;
#X floatatom 8 285 5 0 0 0 - - - 0;
#X obj 142 27 vradio 15 1 0 16 empty empty empty 0 -8 0 10 #fcfcfc #000000 #000000 0;
#X obj 142 269 + 16;
#X obj 264 31 vradio 15 1 0 16 empty empty empty 0 -8 0 10 #fcfcfc #000000 #000000 0;
#X obj 264 274 + 32;
#X obj 9 353 outlet;
#X obj 434 29 vradio 15 1 0 16 empty empty empty 0 -8 0 10 #fcfcfc #000000 #000000 0;
#X obj 434 273 + 48;
#X obj 567 29 vradio 15 1 0 16 empty empty empty 0 -8 0 10 #fcfcfc #000000 #000000 0;
#X obj 567 276 + 64;
#X obj 722 27 vradio 15 1 0 16 empty empty empty 0 -8 0 10 #fcfcfc #000000 #000000 0;
#X obj 723 272 + 80;
#X text 30 42 5-19;
#X text 30 56 5-22;
#X text 30 71 5-24;
#X text 30 85 Balafon7;
#X text 30 100 Chin_5;
#X text 30 114 Chin_sientsu;
#X text 30 129 Cons9`;
#X text 30 143 Degung-sejati;
#X text 30 159 Degung1;
#X text 30 173 Degung2;
#X text 30 188 Degung3;
#X text 30 202 Degung4;
#X text 30 217 Degung5;
#X text 30 231 Degung6;
#X text 30 246 DimTetB;
#X text 30 260 Div_Fifth1;
#X text 163 27 Div_Fifth2;
#X text 163 41 Div_Fifth3;
#X text 163 56 Div_Fifth4;
#X text 163 70 Div_Fifth5;
#X text 163 85 Farey3;
#X text 163 99 Fj-5tET;
#X text 163 114 GengGong;
#X text 163 128 Golden_5;
#X text 163 146 Harrison_5;
#X text 163 160 Harrison_5_1;
#X text 163 175 Harrison_5_3;
#X text 163 189 Harrison_5_4;
#X text 163 204 Harrison_Min;
#X text 163 218 Harrison_Mix1;
#X text 163 233 Harrison_Mix2;
#X text 163 247 Harrison_Mix3;
#X text 291 29 Harrison_Mix4;
#X text 291 43 Hexany15;
#X text 291 58 Hexany16;
#X text 291 72 Hexany17;
#X text 291 87 Hexany18;
#X text 291 101 Hexany19;
#X text 291 116 Hexany22;
#X text 291 130 Hexany23;
#X text 291 148 Hexany24;
#X text 291 162 Hexany25;
#X text 291 177 Hexany26;
#X text 291 191 Hirajoshi;
#X text 291 206 Hirajoshi2;
#X text 291 220 Ho_Mai_Nhi;
#X text 291 235 Isfahan_5;
#X text 291 249 Islamic;
#X text 457 26 Jemblung1;
#X text 457 43 Jemblung2;
#X text 457 57 Ji_5Coh;
#X text 458 73 Kebyar-B;
#X text 458 87 Kebyar-S;
#X text 457 102 Kebyar-T;
#X text 458 117 Keen1;
#X text 459 131 Keen2;
#X text 459 147 Keen3;
#X text 459 163 Keen4;
#X text 459 178 Keen5;
#X text 459 194 Keen6;
#X text 457 208 Korea_5;
#X text 457 222 Madenda-Sejati;
#X text 457 236 Madimba;
#X text 457 250 Malkauns;
#X text 585 28 Mbira_Budongo;
#X text 585 42 Mbira_Budongo2;
#X text 585 58 Mbira_Chisanzhi4;
#X text 585 72 Mbira_Ekembe2;
#X text 586 88 Mbira_Ikembe;
#X text 586 102 Mbira_Ilimba;
#X text 586 117 Mbira_Isanzo;
#X text 586 132 Mbira_Kalimba;
#X text 587 147 Mbira_Katima;
#X text 587 162 Mbira_Kiliyo;
#X text 587 177 Mbira_Kombi;
#X text 587 191 Mbira_Limba;
#X text 587 207 Mbira_Mang_Baru;
#X text 586 222 Mbira_Mbele_Ko_Fuku;
#X text 587 237 Mbira_Natine;
#X text 587 252 Mbira_Sansi;
#X text 738 27 Mbira_Sansi2;
#X text 738 40 Melog;
#X text 738 54 Minor_5;
#X text 738 70 Miring;
#X text 738 85 Miring1;
#X text 739 100 Miring2;
#X text 739 116 Neutr_Pent1;
#X text 740 130 Neutr_Pent2e;
#X text 740 145 Ogr5;
#X text 740 161 Ogr5A;
#X text 739 176 Ogr5B;
#X text 739 192 Ogr5C;
#X text 739 206 Olympos;
#X text 739 220 Pelog16;
#X text 740 235 Pelog17;
#X text 740 249 Pelog18;
#X obj 73 313 vradio 15 1 0 16 empty empty empty 0 -8 0 10 #fcfcfc #000000 #000000 0;
#X obj 268 317 vradio 15 1 0 16 empty empty empty 0 -8 0 10 #fcfcfc #000000 #000000 0;
#X obj 431 316 vradio 15 1 0 16 empty empty empty 0 -8 0 10 #fcfcfc #000000 #000000 0;
#X obj 564 316 vradio 15 1 0 16 empty empty empty 0 -8 0 10 #fcfcfc #000000 #000000 0;
#X obj 719 314 vradio 15 1 0 16 empty empty empty 0 -8 0 10 #fcfcfc #000000 #000000 0;
#X obj 73 555 + 96;
#X obj 268 560 + 112;
#X obj 431 556 + 128;
#X obj 564 558 + 144;
#X obj 720 559 + 160;
#X floatatom 797 575 5 0 0 0 - - - 0;
#X obj 797 598 outlet;
#X text 97 313 Pelog19;
#X text 97 331 Pelog3;
#X text 97 345 Pelog_JC;
#X text 96 359 Pelog_Mal;
#X text 96 373 Penta_Opt;
#X text 96 387 Pipedum_5A;
#X text 96 401 Prime_5;
#X text 95 416 Pygmie;
#X text 95 430 Renteng1;
#X text 95 446 Renteng2;
#X text 95 461 Renteng4;
#X text 95 475 Saba;
#X text 129 475 Pentachord;
#X text 206 475 19-limit;
#X text 94 491 Salunding;
#X text 94 506 Schulter_Pel;
#X text 95 536 Selisir3;
#X text 292 316 Selisir4;
#X text 291 331 Selisir5;
#X text 291 348 Selisir6;
#X text 95 520 Sejati;
#X text 291 362 Slendro;
#X text 291 377 Slendro10;
#X text 290 392 Slendro11;
#X text 290 408 Slendro2;
#X text 290 423 Slendro4;
#X text 290 438 Slendro5_1;
#X text 289 453 Slendro5_2;
#X text 289 469 Slendro5_4;
#X text 289 483 Slendro6;
#X text 288 498 Slendro8;
#X text 288 514 Slendro9;
#X text 288 542 SlendroB2;
#X text 288 527 SlendroB1;
#X text 454 315 SlendroB3;
#X text 453 330 SlendroC1;
#X text 453 346 SlendroC2;
#X text 453 360 SlendroC3;
#X text 452 375 SlendroC4;
#X text 452 391 SlendroC5;
#X text 452 406 SlendroD1;
#X text 452 421 Slendro_7_1;
#X text 452 436 Slendro_7_2;
#X text 451 451 Slendro_7_3;
#X text 451 467 Slendro_7_4;
#X text 451 481 Slendro_7_5;
#X text 450 496 Slendro_7_6;
#X text 450 512 Slendro_A1;
#X text 449 525 Slendro_Ang;
#X text 449 540 Slendro_Ang2;
#X text 585 313 Slendro_Dudon;
#X text 584 328 Slendro_Ky1;
#X text 584 344 Slendro_M;
#X text 584 358 Slendro_Pa;
#X text 583 373 Slendro_Pb;
#X text 583 389 Slendro_Pc;
#X text 583 404 Slendro_Q13;
#X text 583 419 Slendro_S1;
#X text 583 434 Slendro_Udan;
#X text 582 449 Slendro_Wolf;
#X text 583 464 SmithGw72F;
#X text 583 479 SmithGw72G;
#X text 584 494 Sorog9;
#X text 583 508 Spon_mont;
#X text 584 523 Spon_Terp;
#X text 584 538 Surupan_Ajeng;
#X text 740 309 Surupan_Degung;
#X text 740 323 Surupan_Madenda;
#X text 740 339 Surupan_Melog;
#X text 740 353 Surupan_Miring;
#X text 740 367 Surupan_X;
#X text 740 383 Surupan_Y;
#X text 741 399 Swet1;
#X text 742 414 Swet2;
#X text 741 429 Swet3;
#X text 742 444 Swet4;
#X text 741 459 Swet5;
#X text 740 474 Swet6;
#X text 739 489 Temp5Ebf;
#X text 740 503 Temp5Ebs;
#X obj 890 316 vradio 15 1 0 2 empty empty empty 0 -8 0 10 #fcfcfc #000000 #000000 0;
#X obj 889 558 + 176;
#X text 740 520 Tranh;
#X text 740 535 Tranh2;
#X text 910 313 Trawas;
#X text 909 329 Xylophone3;
#X connect 0 0 1 0;
#X connect 1 0 6 0;
#X connect 2 0 3 0;
#X connect 3 0 1 0;
#X connect 4 0 5 0;
#X connect 5 0 1 0;
#X connect 7 0 8 0;
#X connect 8 0 1 0;
#X connect 9 0 10 0;
#X connect 10 0 1 0;
#X connect 11 0 12 0;
#X connect 12 0 1 0;
#X connect 109 0 114 0;
#X connect 110 0 115 0;
#X connect 111 0 116 0;
#X connect 112 0 117 0;
#X connect 113 0 118 0;
#X connect 114 0 119 0;
#X connect 115 0 119 0;
#X connect 116 0 119 0;
#X connect 117 0 119 0;
#X connect 118 0 119 0;
#X connect 119 0 120 0;
#X connect 201 0 202 0;
#X connect 202 0 119 0;
#X restore 219 250 pd selector;
#X obj 158 58 loadbang;
#X msg 189 367 read ./resources/penta-scales-names.txt;
#N canvas 14 23 321 295 timing 1;
#X floatatom 186 95 0 0 0 0 - - - 0;
#X obj 151 169 counter;
#X obj 119 141 t b b;
#X obj 119 117 metro 1000;
#X floatatom 153 190 5 0 0 0 - - - 0;
#X obj 119 63 inlet;
#X obj 184 39 inlet;
#X obj 186 73 * 1000;
#X obj 153 217 mod 178;
#X obj 227 292 outlet;
#X obj 33 124 inlet;
#X obj 227 238 + 0;
#X obj 267 65 inlet;
#X obj 267 112 t b f;
#X obj 119 87 tgl 19 0 empty empty empty 0 -10 0 12 #fcfcfc #000000 #000000 0 1;
#X floatatom 227 264 5 0 0 0 - - - 0;
#X connect 0 0 3 1;
#X connect 1 0 4 0;
#X connect 2 1 1 0;
#X connect 3 0 2 0;
#X connect 4 0 8 0;
#X connect 5 0 14 0;
#X connect 6 0 7 0;
#X connect 7 0 0 0;
#X connect 8 0 11 0;
#X connect 10 0 2 0;
#X connect 11 0 15 0;
#X connect 12 0 13 0;
#X connect 13 0 11 0;
#X connect 13 1 11 1;
#X connect 14 0 3 0;
#X connect 15 0 9 0;
#X restore 10 126 pd timing;
#X floatatom 65 100 5 0 0 0 - - - 0;
#X obj 229 531 cyclone/coll;
#C restore;
#X msg 229 498 read ./resources/penta-scales-desc.txt;
#X msg 229 550 \; scale-desc label \$1;
#X msg 65 77 30;
#X obj 497 433 cyclone/coll;
#C restore;
#X msg 496 123 read ./resources/penta-scale-data.txt;
#N canvas 775 782 296 325 hide-scale-message 0;
#X obj 90 21 inlet;
#X obj 19 20 inlet;
#X obj 90 84 cyclone/coll;
#C restore;
#X msg 17 184 240 67 0 107 0 0 14 47 0 67 247;
#X msg 56 239 240 67 0 107 0 0 15 47 0 66 247;
#X obj 17 206 list append;
#X obj 17 256 list;
#X obj 17 292 midiout 1;
#X obj 17 154 t b b;
#X obj 17 130 bng 15 250 50 0 empty empty empty 17 7 0 10 #fcfcfc #000000 #000000;
#X obj 19 67 t b f;
#X connect 0 0 2 0;
#X connect 1 0 10 0;
#X connect 2 0 5 1;
#X connect 3 0 5 0;
#X connect 4 0 6 1;
#X connect 5 0 6 0;
#X connect 6 0 7 0;
#X connect 8 0 3 0;
#X connect 8 1 4 0;
#X connect 9 0 8 0;
#X connect 10 0 9 0;
#X connect 10 1 2 0;
#X restore 31 467 pd hide-scale-message;
#X obj 720 544 cyclone/coll;
#C restore;
#X msg 720 387 read ./resources/penta-scale-image.txt;
#X obj 9 6 inlet;
#X obj 14 496 outlet;
#X floatatom 111 108 5 0 0 0 - - - 0;
#X obj 497 461 outlet;
#X obj 14 269 + 0;
#X obj 14 313 mod 178;
#X floatatom 48 208 5 0 0 0 - - - 0;
#X obj 47 231 t b f;
#X floatatom 60 287 5 0 0 0 - - - 0;
#X floatatom 14 292 5 0 0 0 - - - 0;
#X obj 48 184 counter;
#X obj 48 164 bng 15 250 50 0 empty empty empty 17 7 0 10 #fcfcfc #000000 #000000;
#X floatatom 71 160 5 0 0 0 - - - 0;
#X obj 49 51 inlet;
#N canvas 68 488 490 422 hide-formatting-MIDIv 0;
#X obj 45 11 inlet;
#X obj 45 42 unpack f f f f f;
#X floatatom 3 68 5 0 0 0 - - - 0;
#X floatatom 72 70 7 0 0 0 - - - 0;
#X floatatom 169 59 7 0 0 0 - - - 0;
#X floatatom 246 59 7 0 0 0 - - - 0;
#X floatatom 306 59 7 0 0 0 - - - 0;
#X msg 3 122 \; scale-midi1 label \$1;
#X obj 3 91 makefilename %d;
#X msg 72 193 \; scale-midi2 label \$1;
#X msg 246 247 \; scale-midi4 label \$1;
#X msg 306 321 \; scale-midi5 label \$1;
#X msg 169 106 \; scale-midi3 label \$1;
#X obj 72 162 makefilename %f;
#X obj 246 216 makefilename %f;
#X obj 306 290 makefilename %f;
#X obj 169 81 makefilename %f;
#X connect 0 0 1 0;
#X connect 1 0 2 0;
#X connect 1 1 3 0;
#X connect 1 2 4 0;
#X connect 1 3 5 0;
#X connect 1 4 6 0;
#X connect 2 0 8 0;
#X connect 3 0 13 0;
#X connect 4 0 16 0;
#X connect 5 0 14 0;
#X connect 6 0 15 0;
#X connect 8 0 7 0;
#X connect 13 0 9 0;
#X connect 14 0 10 0;
#X connect 15 0 11 0;
#X connect 16 0 12 0;
#X restore 728 36 pd hide-formatting-MIDIv;
#N canvas 1600 319 860 393 hide-formatting-Cents-and-fractions 0;
#X obj 58 -8 inlet;
#X obj 58 23 unpack f f f f f;
#X floatatom 2 42 5 0 0 0 - - - 0;
#X floatatom 85 67 7 0 0 0 - - - 0;
#X floatatom 140 67 7 0 0 0 - - - 0;
#X floatatom 259 70 7 0 0 0 - - - 0;
#X floatatom 274 48 7 0 0 0 - - - 0;
#X obj 2 106 makefilename %d;
#X obj 86 189 makefilename %f;
#X obj 259 197 makefilename %f;
#X obj 274 301 makefilename %f;
#X obj 140 95 makefilename %f;
#X msg 2 137 \; scale-image1 label \$1;
#X msg 86 220 \; scale-image2 label \$1;
#X msg 140 119 \; scale-image3 label \$1;
#X msg 259 228 \; scale-image4 label \$1;
#X msg 274 332 \; scale-image5 label \$1;
#X msg 422 185 \; scale-image2 label \$1;
#X msg 503 84 \; scale-image3 label \$1;
#X msg 580 190 \; scale-image4 label \$1;
#X msg 659 94 \; scale-image5 label \$1;
#X obj 503 61 makefilename %s;
#X obj 422 154 makefilename %s;
#X obj 580 159 makefilename %s;
#X obj 659 63 makefilename %s;
#X obj 395 9 unpack s s s s s;
#X symbolatom 422 37 10 0 0 0 - - - 0;
#X symbolatom 503 39 10 0 0 0 - - - 0;
#X symbolatom 580 38 10 0 0 0 - - - 0;
#X symbolatom 659 37 10 0 0 0 - - - 0;
#X connect 0 0 1 0;
#X connect 0 0 25 0;
#X connect 1 0 2 0;
#X connect 1 1 3 0;
#X connect 1 2 4 0;
#X connect 1 3 5 0;
#X connect 1 4 6 0;
#X connect 2 0 7 0;
#X connect 3 0 8 0;
#X connect 4 0 11 0;
#X connect 5 0 9 0;
#X connect 6 0 10 0;
#X connect 7 0 12 0;
#X connect 8 0 13 0;
#X connect 9 0 15 0;
#X connect 10 0 16 0;
#X connect 11 0 14 0;
#X connect 21 0 18 0;
#X connect 22 0 17 0;
#X connect 23 0 19 0;
#X connect 24 0 20 0;
#X connect 25 1 26 0;
#X connect 25 2 27 0;
#X connect 25 3 28 0;
#X connect 25 4 29 0;
#X connect 26 0 22 0;
#X connect 27 0 21 0;
#X connect 28 0 23 0;
#X connect 29 0 24 0;
#X restore 719 574 pd hide-formatting-Cents-and-fractions;
#X obj 158 106 t b b b b b b;
#X obj 14 412 t f f f f f f;
#X obj 935 27 gate 2;
#X obj 935 2 + 1;
#X obj 935 -22 tgl 15 0 empty empty empty 17 7 0 10 #fcfcfc #000000 #000000 0 1;
#X floatatom 764 486 5 0 0 0 - - - 0;
#X obj 764 420 hradio 15 1 1 2 empty empty empty 0 -8 0 10 #fcfcfc #000000 #000000 1;
#X obj 764 440 + 3;
#X text 213 219 pick scale directly (by name only);
#X text 749 519 Hacking to deal with repeated error messages?;
#X obj 716 229 thigner;
#X text 242 60 RUN THROUGH SCALES at 30sec intervals;
#X obj 14 358 spigot;
#X obj 53 340 tgl 15 0 empty empty empty 17 7 0 10 #fcfcfc #000000 #000000 0 1;
#X obj 200 239 cnv 15 500 5 empty empty empty 20 12 0 14 #fc0400 #404040 0;
#X obj -1 178 spigot;
#X obj 57 30 tgl 18 0 empty empty empty 17 7 0 18 #fcfcfc #000000 #000000 0 1;
#X obj 351 418 print name;
#X obj 382 550 print description;
#X obj 514 599 cnv 15 500 5 empty empty empty 20 12 0 14 #fc0400 #404040 0;
#X text 761 610 Displaying data work, f 22;
#X obj 59 379 print collNUM;
#X obj 837 546 print descVals;
#X text 245 82 OPEN SPIGOT;
#X floatatom -1 152 5 0 0 0 - - - 0;
#X text 85 130 178 scales in toto;
#X obj 29 27 tgl 24 0 empty empty empty 17 7 0 10 #fcfcfc #000000 #000000 0 1;
#X obj 82 11 cnv 15 50 30 empty empty autostep! 20 12 0 14 #ffc7c6 #404040 0;
#X obj 127 187 cnv 15 50 30 empty empty open\ spigot! 20 12 0 14 #ffc7c6 #404040 0;
#X connect 0 0 51 0;
#X connect 0 0 1 0;
#X connect 2 0 46 0;
#X connect 3 0 15 1;
#X connect 4 0 22 0;
#X connect 4 1 22 0;
#X connect 5 0 12 0;
#X connect 5 0 34 0;
#X connect 6 0 0 0;
#X connect 7 0 58 0;
#X connect 8 0 7 2;
#X connect 9 0 11 0;
#X connect 9 0 52 0;
#X connect 10 0 9 0;
#X connect 12 0 8 0;
#X connect 13 0 21 0;
#X connect 13 0 32 0;
#X connect 14 0 13 0;
#X connect 16 0 33 0;
#X connect 16 0 56 0;
#X connect 17 0 16 0;
#X connect 18 0 7 0;
#X connect 20 0 7 3;
#X connect 22 0 27 0;
#X connect 23 0 2 0;
#X connect 24 0 25 0;
#X connect 25 0 22 0;
#X connect 25 1 22 1;
#X connect 26 0 23 1;
#X connect 27 0 23 0;
#X connect 28 0 24 0;
#X connect 29 0 28 0;
#X connect 30 0 28 2;
#X connect 31 0 29 0;
#X connect 34 0 47 0;
#X connect 34 1 3 0;
#X connect 34 2 6 0;
#X connect 34 3 10 0;
#X connect 34 4 17 0;
#X connect 34 5 14 0;
#X connect 35 0 19 0;
#X connect 35 1 15 0;
#X connect 35 2 9 0;
#X connect 35 3 0 0;
#X connect 35 4 16 0;
#X connect 35 5 13 0;
#X connect 37 0 36 0;
#X connect 38 0 37 0;
#X connect 39 0 16 0;
#X connect 40 0 41 0;
#X connect 41 0 39 0;
#X connect 44 0 27 0;
#X connect 46 0 35 0;
#X connect 46 0 55 0;
#X connect 47 0 46 1;
#X connect 49 0 22 0;
#X connect 50 0 49 1;
#X connect 58 0 49 0;
#X connect 60 0 7 1;
